<?xml version="1.0" encoding="UTF-8" standalone="no"?>
<!DOCTYPE svg PUBLIC "-//W3C//DTD SVG 1.1//EN"
 "http://www.w3.org/Graphics/SVG/1.1/DTD/svg11.dtd">
<!-- Generated by graphviz version 2.40.1 (20161225.0304)
 -->
<!-- Title: G Pages: 1 -->
<svg width="504pt" height="1108pt"
 viewBox="0.00 0.00 503.52 1108.00" xmlns="http://www.w3.org/2000/svg" xmlns:xlink="http://www.w3.org/1999/xlink">
<g id="graph0" class="graph" transform="scale(1 1) rotate(0) translate(4 1104)">
<title>G</title>
<polygon fill="#ffffff" stroke="transparent" points="-4,4 -4,-1104 499.516,-1104 499.516,4 -4,4"/>
<!-- A0 -->
<g id="node1" class="node">
<title>A0</title>
<polygon fill="#f5f5dc" stroke="#000000" points="195.6853,-1100 121.1067,-1100 121.1067,-1064 201.6853,-1064 201.6853,-1094 195.6853,-1100"/>
<polyline fill="none" stroke="#000000" points="195.6853,-1100 195.6853,-1094 "/>
<polyline fill="none" stroke="#000000" points="201.6853,-1094 195.6853,-1094 "/>
<text text-anchor="middle" x="161.396" y="-1085" font-family="Helvetica,sans-Serif" font-size="10.00" fill="#000000">Pull request</text>
<text text-anchor="middle" x="161.396" y="-1073" font-family="Helvetica,sans-Serif" font-size="10.00" fill="#000000">activity</text>
</g>
<!-- A1 -->
<g id="node2" class="node">
<title>A1</title>
<ellipse fill="none" stroke="#000000" cx="230.396" cy="-1082" rx="11" ry="11"/>
</g>
<!-- A2 -->
<g id="node3" class="node">
<title>A2</title>
<path fill="none" stroke="#000000" d="M272.42,-1027C272.42,-1027 188.372,-1027 188.372,-1027 182.372,-1027 176.372,-1021 176.372,-1015 176.372,-1015 176.372,-1003 176.372,-1003 176.372,-997 182.372,-991 188.372,-991 188.372,-991 272.42,-991 272.42,-991 278.42,-991 284.42,-997 284.42,-1003 284.42,-1003 284.42,-1015 284.42,-1015 284.42,-1021 278.42,-1027 272.42,-1027"/>
<text text-anchor="middle" x="230.396" y="-1006" font-family="Helvetica,sans-Serif" font-size="10.00" fill="#000000">Pull request event</text>
</g>
<!-- A1&#45;&gt;A2 -->
<g id="edge1" class="edge">
<title>A1&#45;&gt;A2</title>
<path fill="none" stroke="#000000" d="M230.396,-1070.9129C230.396,-1061.9959 230.396,-1049.0618 230.396,-1037.3187"/>
<polygon fill="#000000" stroke="#000000" points="230.396,-1027.0186 234.8961,-1037.0186 230.396,-1032.0186 230.3961,-1037.0186 230.3961,-1037.0186 230.3961,-1037.0186 230.396,-1032.0186 225.8961,-1037.0186 230.396,-1027.0186 230.396,-1027.0186"/>
</g>
<!-- A3 -->
<g id="node4" class="node">
<title>A3</title>
<polygon fill="none" stroke="#000000" points="248.909,-954 181.883,-954 181.883,-910 254.909,-910 254.909,-948 248.909,-954"/>
<polyline fill="none" stroke="#000000" points="248.909,-954 248.909,-948 "/>
<polyline fill="none" stroke="#000000" points="254.909,-948 248.909,-948 "/>
<text text-anchor="middle" x="218.396" y="-941" font-family="Helvetica,sans-Serif" font-size="10.00" fill="#000000">Branches:</text>
<text text-anchor="middle" x="218.396" y="-929" font-family="Helvetica,sans-Serif" font-size="10.00" fill="#000000">&#45; develop</text>
<text text-anchor="middle" x="218.396" y="-917" font-family="Helvetica,sans-Serif" font-size="10.00" fill="#000000">&#45; master</text>
</g>
<!-- A2&#45;&gt;A3 -->
<g id="edge2" class="edge">
<title>A2&#45;&gt;A3</title>
<path fill="none" stroke="#000000" stroke-dasharray="5,2" d="M227.5522,-990.7521C225.8472,-979.8118 223.6669,-965.8215 221.8616,-954.2377"/>
</g>
<!-- A4 -->
<g id="node5" class="node">
<title>A4</title>
<path fill="none" stroke="#000000" d="M331.6304,-950C331.6304,-950 285.1616,-950 285.1616,-950 279.1616,-950 273.1616,-944 273.1616,-938 273.1616,-938 273.1616,-926 273.1616,-926 273.1616,-920 279.1616,-914 285.1616,-914 285.1616,-914 331.6304,-914 331.6304,-914 337.6304,-914 343.6304,-920 343.6304,-926 343.6304,-926 343.6304,-938 343.6304,-938 343.6304,-944 337.6304,-950 331.6304,-950"/>
<text text-anchor="middle" x="308.396" y="-929" font-family="Helvetica,sans-Serif" font-size="10.00" fill="#000000">Checkout</text>
</g>
<!-- A2&#45;&gt;A4 -->
<g id="edge3" class="edge">
<title>A2&#45;&gt;A4</title>
<path fill="none" stroke="#000000" d="M248.8809,-990.7521C258.9834,-980.7791 271.6533,-968.2716 282.7037,-957.3629"/>
<polygon fill="#000000" stroke="#000000" points="290.0438,-950.1169 286.0886,-960.3447 286.4855,-953.6296 282.9272,-957.1423 282.9272,-957.1423 282.9272,-957.1423 286.4855,-953.6296 279.7658,-953.9398 290.0438,-950.1169 290.0438,-950.1169"/>
</g>
<!-- A5 -->
<g id="node6" class="node">
<title>A5</title>
<path fill="none" stroke="#000000" d="M341.6463,-873C341.6463,-873 275.1457,-873 275.1457,-873 269.1457,-873 263.1457,-867 263.1457,-861 263.1457,-861 263.1457,-849 263.1457,-849 263.1457,-843 269.1457,-837 275.1457,-837 275.1457,-837 341.6463,-837 341.6463,-837 347.6463,-837 353.6463,-843 353.6463,-849 353.6463,-849 353.6463,-861 353.6463,-861 353.6463,-867 347.6463,-873 341.6463,-873"/>
<text text-anchor="middle" x="308.396" y="-858" font-family="Helvetica,sans-Serif" font-size="10.00" fill="#000000">Install</text>
<text text-anchor="middle" x="308.396" y="-846" font-family="Helvetica,sans-Serif" font-size="10.00" fill="#000000">dependencies</text>
</g>
<!-- A4&#45;&gt;A5 -->
<g id="edge4" class="edge">
<title>A4&#45;&gt;A5</title>
<path fill="none" stroke="#000000" d="M308.396,-913.7521C308.396,-904.6422 308.396,-893.4174 308.396,-883.2282"/>
<polygon fill="#000000" stroke="#000000" points="308.396,-873.1169 312.8961,-883.1169 308.396,-878.1169 308.3961,-883.1169 308.3961,-883.1169 308.3961,-883.1169 308.396,-878.1169 303.8961,-883.117 308.396,-873.1169 308.396,-873.1169"/>
</g>
<!-- A6 -->
<g id="node7" class="node">
<title>A6</title>
<path fill="none" stroke="#000000" d="M346.6343,-800C346.6343,-800 270.1577,-800 270.1577,-800 264.1577,-800 258.1577,-794 258.1577,-788 258.1577,-788 258.1577,-768 258.1577,-768 258.1577,-762 264.1577,-756 270.1577,-756 270.1577,-756 346.6343,-756 346.6343,-756 352.6343,-756 358.6343,-762 358.6343,-768 358.6343,-768 358.6343,-788 358.6343,-788 358.6343,-794 352.6343,-800 346.6343,-800"/>
<text text-anchor="middle" x="308.396" y="-787" font-family="Helvetica,sans-Serif" font-size="10.00" fill="#000000">Deploy PR code</text>
<text text-anchor="middle" x="308.396" y="-775" font-family="Helvetica,sans-Serif" font-size="10.00" fill="#000000">to the dedicated</text>
<text text-anchor="middle" x="308.396" y="-763" font-family="Helvetica,sans-Serif" font-size="10.00" fill="#000000">Zeit project</text>
</g>
<!-- A5&#45;&gt;A6 -->
<g id="edge5" class="edge">
<title>A5&#45;&gt;A6</title>
<path fill="none" stroke="#000000" d="M308.396,-836.7521C308.396,-828.8888 308.396,-819.4498 308.396,-810.4612"/>
<polygon fill="#000000" stroke="#000000" points="308.396,-800.2377 312.8961,-810.2376 308.396,-805.2377 308.3961,-810.2377 308.3961,-810.2377 308.3961,-810.2377 308.396,-805.2377 303.8961,-810.2377 308.396,-800.2377 308.396,-800.2377"/>
</g>
<!-- A7 -->
<g id="node8" class="node">
<title>A7</title>
<polygon fill="none" stroke="#000000" points="229.6303,-713 135.1617,-713 135.1617,-657 235.6303,-657 235.6303,-707 229.6303,-713"/>
<polyline fill="none" stroke="#000000" points="229.6303,-713 229.6303,-707 "/>
<polyline fill="none" stroke="#000000" points="235.6303,-707 229.6303,-707 "/>
<text text-anchor="middle" x="185.396" y="-700" font-family="Helvetica,sans-Serif" font-size="10.00" fill="#000000">Configured with:</text>
<text text-anchor="middle" x="185.396" y="-688" font-family="Helvetica,sans-Serif" font-size="10.00" fill="#000000">&#45; API token</text>
<text text-anchor="middle" x="185.396" y="-676" font-family="Helvetica,sans-Serif" font-size="10.00" fill="#000000">&#45; TeamId</text>
<text text-anchor="middle" x="185.396" y="-664" font-family="Helvetica,sans-Serif" font-size="10.00" fill="#000000">&#45; ProjectId</text>
</g>
<!-- A6&#45;&gt;A7 -->
<g id="edge6" class="edge">
<title>A6&#45;&gt;A7</title>
<path fill="none" stroke="#000000" stroke-dasharray="5,2" d="M279.2467,-755.9603C262.3391,-743.1765 240.871,-726.9445 222.7357,-713.2325"/>
</g>
<!-- A8 -->
<g id="node9" class="node">
<title>A8</title>
<polygon fill="none" stroke="#000000" points="357.0211,-719 253.7709,-719 253.7709,-651 363.0211,-651 363.0211,-713 357.0211,-719"/>
<polyline fill="none" stroke="#000000" points="357.0211,-719 357.0211,-713 "/>
<polyline fill="none" stroke="#000000" points="363.0211,-713 357.0211,-713 "/>
<text text-anchor="middle" x="308.396" y="-706" font-family="Helvetica,sans-Serif" font-size="10.00" fill="#000000">Maybe this action</text>
<text text-anchor="middle" x="308.396" y="-694" font-family="Helvetica,sans-Serif" font-size="10.00" fill="#000000">will require</text>
<text text-anchor="middle" x="308.396" y="-682" font-family="Helvetica,sans-Serif" font-size="10.00" fill="#000000">dedicated DB</text>
<text text-anchor="middle" x="308.396" y="-670" font-family="Helvetica,sans-Serif" font-size="10.00" fill="#000000">and DB migration</text>
<text text-anchor="middle" x="308.396" y="-658" font-family="Helvetica,sans-Serif" font-size="10.00" fill="#000000">How to solve this?</text>
</g>
<!-- A6&#45;&gt;A8 -->
<g id="edge7" class="edge">
<title>A6&#45;&gt;A8</title>
<path fill="none" stroke="#000000" stroke-dasharray="5,2" d="M308.396,-755.9603C308.396,-745.0027 308.396,-731.5118 308.396,-719.2459"/>
</g>
<!-- A9 -->
<g id="node10" class="node">
<title>A9</title>
<polygon fill="none" stroke="#000000" points="399.396,-703 381.396,-685 399.396,-667 417.396,-685 399.396,-703"/>
</g>
<!-- A6&#45;&gt;A9 -->
<g id="edge8" class="edge">
<title>A6&#45;&gt;A9</title>
<path fill="none" stroke="#000000" d="M334.1781,-755.8871C346.2058,-745.1616 360.465,-731.8435 372.396,-719 376.8656,-714.1886 381.4202,-708.714 385.4843,-703.585"/>
<polygon fill="#000000" stroke="#000000" points="391.759,-695.4575 389.2099,-706.123 388.7035,-699.4153 385.6479,-703.373 385.6479,-703.373 385.6479,-703.373 388.7035,-699.4153 382.0859,-700.623 391.759,-695.4575 391.759,-695.4575"/>
</g>
<!-- A10 -->
<g id="node11" class="node">
<title>A10</title>
<path fill="none" stroke="#000000" d="M363.5746,-117C363.5746,-117 303.2174,-117 303.2174,-117 297.2174,-117 291.2174,-111 291.2174,-105 291.2174,-105 291.2174,-93 291.2174,-93 291.2174,-87 297.2174,-81 303.2174,-81 303.2174,-81 363.5746,-81 363.5746,-81 369.5746,-81 375.5746,-87 375.5746,-93 375.5746,-93 375.5746,-105 375.5746,-105 375.5746,-111 369.5746,-117 363.5746,-117"/>
<text text-anchor="middle" x="333.396" y="-96" font-family="Helvetica,sans-Serif" font-size="10.00" fill="#000000">Failed action</text>
</g>
<!-- A9&#45;&gt;A10 -->
<g id="edge9" class="edge">
<title>A9&#45;&gt;A10</title>
<path fill="none" stroke="#000000" d="M406.3635,-673.7075C417.8237,-654.0239 439.396,-611.817 439.396,-573 439.396,-573 439.396,-573 439.396,-211 439.396,-172.5004 405.9479,-141.9126 376.6297,-122.4965"/>
<polygon fill="#000000" stroke="#000000" points="368.1044,-117.0764 378.9576,-118.6441 372.3238,-119.759 376.5433,-122.4416 376.5433,-122.4416 376.5433,-122.4416 372.3238,-119.759 374.1289,-126.2391 368.1044,-117.0764 368.1044,-117.0764"/>
<text text-anchor="middle" x="467.456" y="-420" font-family="Helvetica,sans-Serif" font-size="10.00" fill="#000000">[Deployment</text>
<text text-anchor="middle" x="467.456" y="-408" font-family="Helvetica,sans-Serif" font-size="10.00" fill="#000000">failed]</text>
</g>
<!-- A11 -->
<g id="node12" class="node">
<title>A11</title>
<path fill="none" stroke="#000000" d="M399.5471,-591C399.5471,-591 299.2449,-591 299.2449,-591 293.2449,-591 287.2449,-585 287.2449,-579 287.2449,-579 287.2449,-567 287.2449,-567 287.2449,-561 293.2449,-555 299.2449,-555 299.2449,-555 399.5471,-555 399.5471,-555 405.5471,-555 411.5471,-561 411.5471,-567 411.5471,-567 411.5471,-579 411.5471,-579 411.5471,-585 405.5471,-591 399.5471,-591"/>
<text text-anchor="middle" x="349.396" y="-576" font-family="Helvetica,sans-Serif" font-size="10.00" fill="#000000">Write a comment</text>
<text text-anchor="middle" x="349.396" y="-564" font-family="Helvetica,sans-Serif" font-size="10.00" fill="#000000">about the deployment</text>
</g>
<!-- A9&#45;&gt;A11 -->
<g id="edge10" class="edge">
<title>A9&#45;&gt;A11</title>
<path fill="none" stroke="#000000" d="M391.9989,-673.792C385.4253,-663.495 375.8637,-647.654 369.276,-633 364.6866,-622.7911 360.5984,-611.1923 357.3405,-600.9318"/>
<polygon fill="#000000" stroke="#000000" points="354.3717,-591.2185 361.5982,-599.4664 355.8332,-596.0001 357.2948,-600.7818 357.2948,-600.7818 357.2948,-600.7818 355.8332,-596.0001 352.9913,-602.0972 354.3717,-591.2185 354.3717,-591.2185"/>
<text text-anchor="middle" x="396.456" y="-624" font-family="Helvetica,sans-Serif" font-size="10.00" fill="#000000">[Deployment</text>
<text text-anchor="middle" x="396.456" y="-612" font-family="Helvetica,sans-Serif" font-size="10.00" fill="#000000">succeeded]</text>
</g>
<!-- A22 -->
<g id="node23" class="node">
<title>A22</title>
<ellipse fill="none" stroke="#000000" cx="257.396" cy="-22" rx="11" ry="11"/>
<ellipse fill="none" stroke="#000000" cx="257.396" cy="-22" rx="15" ry="15"/>
</g>
<!-- A10&#45;&gt;A22 -->
<g id="edge25" class="edge">
<title>A10&#45;&gt;A22</title>
<path fill="none" stroke="#000000" d="M315.3851,-80.7521C303.2865,-68.4943 287.4088,-52.4077 275.3269,-40.1669"/>
<polygon fill="#000000" stroke="#000000" points="268.0135,-32.7572 278.2409,-36.7132 271.5258,-36.3157 275.0382,-39.8743 275.0382,-39.8743 275.0382,-39.8743 271.5258,-36.3157 271.8355,-43.0355 268.0135,-32.7572 268.0135,-32.7572"/>
</g>
<!-- A23 -->
<g id="node24" class="node">
<title>A23</title>
<polygon fill="none" stroke="#000000" points="365.1853,-44 295.6067,-44 295.6067,0 371.1853,0 371.1853,-38 365.1853,-44"/>
<polyline fill="none" stroke="#000000" points="365.1853,-44 365.1853,-38 "/>
<polyline fill="none" stroke="#000000" points="371.1853,-38 365.1853,-38 "/>
<text text-anchor="middle" x="333.396" y="-31" font-family="Helvetica,sans-Serif" font-size="10.00" fill="#000000">Failure</text>
<text text-anchor="middle" x="333.396" y="-19" font-family="Helvetica,sans-Serif" font-size="10.00" fill="#000000">GitHub</text>
<text text-anchor="middle" x="333.396" y="-7" font-family="Helvetica,sans-Serif" font-size="10.00" fill="#000000">notification</text>
</g>
<!-- A10&#45;&gt;A23 -->
<g id="edge24" class="edge">
<title>A10&#45;&gt;A23</title>
<path fill="none" stroke="#000000" stroke-dasharray="5,2" d="M333.396,-80.7521C333.396,-69.8118 333.396,-55.8215 333.396,-44.2377"/>
</g>
<!-- A12 -->
<g id="node13" class="node">
<title>A12</title>
<polygon fill="none" stroke="#000000" points="404.9818,-518 307.8102,-518 307.8102,-482 410.9818,-482 410.9818,-512 404.9818,-518"/>
<polyline fill="none" stroke="#000000" points="404.9818,-518 404.9818,-512 "/>
<polyline fill="none" stroke="#000000" points="410.9818,-512 404.9818,-512 "/>
<text text-anchor="middle" x="359.396" y="-503" font-family="Helvetica,sans-Serif" font-size="10.00" fill="#000000">Configured with</text>
<text text-anchor="middle" x="359.396" y="-491" font-family="Helvetica,sans-Serif" font-size="10.00" fill="#000000">Github API token</text>
</g>
<!-- A11&#45;&gt;A12 -->
<g id="edge11" class="edge">
<title>A11&#45;&gt;A12</title>
<path fill="none" stroke="#000000" stroke-dasharray="5,2" d="M351.8679,-554.9551C353.4064,-543.7241 355.3782,-529.3298 356.9179,-518.0904"/>
</g>
<!-- A13 -->
<g id="node14" class="node">
<title>A13</title>
<path fill="none" stroke="#000000" d="M277.0874,-518C277.0874,-518 181.7046,-518 181.7046,-518 175.7046,-518 169.7046,-512 169.7046,-506 169.7046,-506 169.7046,-494 169.7046,-494 169.7046,-488 175.7046,-482 181.7046,-482 181.7046,-482 277.0874,-482 277.0874,-482 283.0874,-482 289.0874,-488 289.0874,-494 289.0874,-494 289.0874,-506 289.0874,-506 289.0874,-512 283.0874,-518 277.0874,-518"/>
<text text-anchor="middle" x="229.396" y="-497" font-family="Helvetica,sans-Serif" font-size="10.00" fill="#000000">Run integration tests</text>
</g>
<!-- A11&#45;&gt;A13 -->
<g id="edge12" class="edge">
<title>A11&#45;&gt;A13</title>
<path fill="none" stroke="#000000" d="M319.7331,-554.9551C304.156,-545.479 284.8767,-533.7508 268.1343,-523.5658"/>
<polygon fill="#000000" stroke="#000000" points="259.1336,-518.0904 270.0157,-519.4431 263.4053,-520.689 267.677,-523.2876 267.677,-523.2876 267.677,-523.2876 263.4053,-520.689 265.3382,-527.1321 259.1336,-518.0904 259.1336,-518.0904"/>
</g>
<!-- A14 -->
<g id="node15" class="node">
<title>A14</title>
<polygon fill="none" stroke="#000000" points="229.396,-435 211.396,-417 229.396,-399 247.396,-417 229.396,-435"/>
</g>
<!-- A13&#45;&gt;A14 -->
<g id="edge13" class="edge">
<title>A13&#45;&gt;A14</title>
<path fill="none" stroke="#000000" d="M229.396,-481.9902C229.396,-471.2963 229.396,-457.4994 229.396,-445.3706"/>
<polygon fill="#000000" stroke="#000000" points="229.396,-435.2612 233.8961,-445.2612 229.396,-440.2612 229.3961,-445.2612 229.3961,-445.2612 229.3961,-445.2612 229.396,-440.2612 224.8961,-445.2613 229.396,-435.2612 229.396,-435.2612"/>
</g>
<!-- A15 -->
<g id="node16" class="node">
<title>A15</title>
<polygon fill="none" stroke="#000000" points="365.1912,-445 265.6008,-445 265.6008,-389 371.1912,-389 371.1912,-439 365.1912,-445"/>
<polyline fill="none" stroke="#000000" points="365.1912,-445 365.1912,-439 "/>
<polyline fill="none" stroke="#000000" points="371.1912,-439 365.1912,-439 "/>
<text text-anchor="middle" x="318.396" y="-432" font-family="Helvetica,sans-Serif" font-size="10.00" fill="#000000">Tests are running</text>
<text text-anchor="middle" x="318.396" y="-420" font-family="Helvetica,sans-Serif" font-size="10.00" fill="#000000">against</text>
<text text-anchor="middle" x="318.396" y="-408" font-family="Helvetica,sans-Serif" font-size="10.00" fill="#000000">the deployed</text>
<text text-anchor="middle" x="318.396" y="-396" font-family="Helvetica,sans-Serif" font-size="10.00" fill="#000000">instance</text>
</g>
<!-- A13&#45;&gt;A15 -->
<g id="edge14" class="edge">
<title>A13&#45;&gt;A15</title>
<path fill="none" stroke="#000000" stroke-dasharray="5,2" d="M248.7077,-481.9902C260.2618,-471.2151 275.1938,-457.2897 288.2705,-445.0946"/>
</g>
<!-- A14&#45;&gt;A10 -->
<g id="edge15" class="edge">
<title>A14&#45;&gt;A10</title>
<path fill="none" stroke="#000000" d="M237.2132,-406.7787C242.1646,-400.8943 249.0118,-393.748 256.396,-389 276.6141,-375.9998 292.594,-389.9388 307.396,-371 363.8117,-298.8174 349.9049,-180.7449 339.6706,-127.1006"/>
<polygon fill="#000000" stroke="#000000" points="337.6946,-117.2635 344.0759,-126.1814 338.6794,-122.1655 339.6641,-127.0676 339.6641,-127.0676 339.6641,-127.0676 338.6794,-122.1655 335.2522,-127.9539 337.6946,-117.2635 337.6946,-117.2635"/>
<text text-anchor="middle" x="384.353" y="-266" font-family="Helvetica,sans-Serif" font-size="10.00" fill="#000000">[Integration tests</text>
<text text-anchor="middle" x="384.353" y="-254" font-family="Helvetica,sans-Serif" font-size="10.00" fill="#000000">failed]</text>
</g>
<!-- A16 -->
<g id="node17" class="node">
<title>A16</title>
<path fill="none" stroke="#000000" d="M282.6872,-329C282.6872,-329 176.1048,-329 176.1048,-329 170.1048,-329 164.1048,-323 164.1048,-317 164.1048,-317 164.1048,-305 164.1048,-305 164.1048,-299 170.1048,-293 176.1048,-293 176.1048,-293 282.6872,-293 282.6872,-293 288.6872,-293 294.6872,-299 294.6872,-305 294.6872,-305 294.6872,-317 294.6872,-317 294.6872,-323 288.6872,-329 282.6872,-329"/>
<text text-anchor="middle" x="229.396" y="-308" font-family="Helvetica,sans-Serif" font-size="10.00" fill="#000000">Create review requests</text>
</g>
<!-- A14&#45;&gt;A16 -->
<g id="edge16" class="edge">
<title>A14&#45;&gt;A16</title>
<path fill="none" stroke="#000000" d="M229.396,-398.5362C229.396,-382.1966 229.396,-358.1 229.396,-339.3232"/>
<polygon fill="#000000" stroke="#000000" points="229.396,-329.2522 233.8961,-339.2522 229.396,-334.2522 229.3961,-339.2522 229.3961,-339.2522 229.3961,-339.2522 229.396,-334.2522 224.8961,-339.2522 229.396,-329.2522 229.396,-329.2522"/>
<text text-anchor="middle" x="266.353" y="-362" font-family="Helvetica,sans-Serif" font-size="10.00" fill="#000000">[Integration tests</text>
<text text-anchor="middle" x="266.353" y="-350" font-family="Helvetica,sans-Serif" font-size="10.00" fill="#000000">succeeded]</text>
</g>
<!-- A17 -->
<g id="node18" class="node">
<title>A17</title>
<polygon fill="none" stroke="#000000" points="298.0894,-233 194.7026,-233 194.7026,-189 304.0894,-189 304.0894,-227 298.0894,-233"/>
<polyline fill="none" stroke="#000000" points="298.0894,-233 298.0894,-227 "/>
<polyline fill="none" stroke="#000000" points="304.0894,-227 298.0894,-227 "/>
<text text-anchor="middle" x="249.396" y="-220" font-family="Helvetica,sans-Serif" font-size="10.00" fill="#000000">Configured with</text>
<text text-anchor="middle" x="249.396" y="-208" font-family="Helvetica,sans-Serif" font-size="10.00" fill="#000000">&#45; Github API token</text>
<text text-anchor="middle" x="249.396" y="-196" font-family="Helvetica,sans-Serif" font-size="10.00" fill="#000000">&#45; reviewers list</text>
</g>
<!-- A16&#45;&gt;A17 -->
<g id="edge17" class="edge">
<title>A16&#45;&gt;A17</title>
<path fill="none" stroke="#000000" stroke-dasharray="5,2" d="M233.0643,-292.6585C236.4249,-275.8557 241.406,-250.9498 244.9829,-233.0653"/>
</g>
<!-- A18 -->
<g id="node19" class="node">
<title>A18</title>
<polygon fill="none" stroke="#000000" points="158.396,-229 140.396,-211 158.396,-193 176.396,-211 158.396,-229"/>
</g>
<!-- A16&#45;&gt;A18 -->
<g id="edge18" class="edge">
<title>A16&#45;&gt;A18</title>
<path fill="none" stroke="#000000" d="M216.3735,-292.6585C203.7599,-274.8928 184.7146,-248.0685 171.9304,-230.0626"/>
<polygon fill="#000000" stroke="#000000" points="165.883,-221.5451 175.3415,-227.0938 168.7777,-225.6221 171.6723,-229.699 171.6723,-229.699 171.6723,-229.699 168.7777,-225.6221 168.0031,-232.3041 165.883,-221.5451 165.883,-221.5451"/>
</g>
<!-- A18&#45;&gt;A10 -->
<g id="edge19" class="edge">
<title>A18&#45;&gt;A10</title>
<path fill="none" stroke="#000000" d="M167.9044,-202.1513C172.8681,-197.826 179.1887,-192.7572 185.396,-189 202.7699,-178.4837 211.8684,-184.0896 227.396,-171 241.9722,-158.7124 236.1784,-147.3296 250.719,-135 259.861,-127.2481 270.9297,-120.913 281.955,-115.8406"/>
<polygon fill="#000000" stroke="#000000" points="291.1628,-111.8733 283.7596,-119.963 286.5709,-113.8518 281.979,-115.8303 281.979,-115.8303 281.979,-115.8303 286.5709,-113.8518 280.1983,-111.6976 291.1628,-111.8733 291.1628,-111.8733"/>
<text text-anchor="middle" x="286.2345" y="-162" font-family="Helvetica,sans-Serif" font-size="10.00" fill="#000000">[Review request</text>
<text text-anchor="middle" x="286.2345" y="-150" font-family="Helvetica,sans-Serif" font-size="10.00" fill="#000000">creation</text>
<text text-anchor="middle" x="286.2345" y="-138" font-family="Helvetica,sans-Serif" font-size="10.00" fill="#000000">failed]</text>
</g>
<!-- A19 -->
<g id="node20" class="node">
<title>A19</title>
<path fill="none" stroke="#000000" d="M216.4,-117C216.4,-117 132.392,-117 132.392,-117 126.392,-117 120.392,-111 120.392,-105 120.392,-105 120.392,-93 120.392,-93 120.392,-87 126.392,-81 132.392,-81 132.392,-81 216.4,-81 216.4,-81 222.4,-81 228.4,-87 228.4,-93 228.4,-93 228.4,-105 228.4,-105 228.4,-111 222.4,-117 216.4,-117"/>
<text text-anchor="middle" x="174.396" y="-96" font-family="Helvetica,sans-Serif" font-size="10.00" fill="#000000">Normal action exit</text>
</g>
<!-- A18&#45;&gt;A19 -->
<g id="edge20" class="edge">
<title>A18&#45;&gt;A19</title>
<path fill="none" stroke="#000000" d="M155.4823,-195.9011C153.0387,-180.3863 150.681,-155.6506 155.719,-135 156.4465,-132.018 157.4678,-129.0077 158.6618,-126.0651"/>
<polygon fill="#000000" stroke="#000000" points="162.9157,-117.0144 162.7346,-127.9788 160.7888,-121.5395 158.662,-126.0646 158.662,-126.0646 158.662,-126.0646 160.7888,-121.5395 154.5894,-124.1505 162.9157,-117.0144 162.9157,-117.0144"/>
<text text-anchor="middle" x="192.2345" y="-162" font-family="Helvetica,sans-Serif" font-size="10.00" fill="#000000">[Review request</text>
<text text-anchor="middle" x="192.2345" y="-150" font-family="Helvetica,sans-Serif" font-size="10.00" fill="#000000">creation</text>
<text text-anchor="middle" x="192.2345" y="-138" font-family="Helvetica,sans-Serif" font-size="10.00" fill="#000000">succeeded]</text>
</g>
<!-- A20 -->
<g id="node21" class="node">
<title>A20</title>
<polygon fill="none" stroke="#000000" points="114.6882,-44 .1038,-44 .1038,0 120.6882,0 120.6882,-38 114.6882,-44"/>
<polyline fill="none" stroke="#000000" points="114.6882,-44 114.6882,-38 "/>
<polyline fill="none" stroke="#000000" points="120.6882,-38 114.6882,-38 "/>
<text text-anchor="middle" x="60.396" y="-31" font-family="Helvetica,sans-Serif" font-size="10.00" fill="#000000">Review request</text>
<text text-anchor="middle" x="60.396" y="-19" font-family="Helvetica,sans-Serif" font-size="10.00" fill="#000000">GitHub notifications</text>
<text text-anchor="middle" x="60.396" y="-7" font-family="Helvetica,sans-Serif" font-size="10.00" fill="#000000">are sent to reviewers</text>
</g>
<!-- A19&#45;&gt;A20 -->
<g id="edge21" class="edge">
<title>A19&#45;&gt;A20</title>
<path fill="none" stroke="#000000" stroke-dasharray="5,2" d="M147.6681,-80.9469C131.3471,-69.9231 110.3613,-55.7485 93.0591,-44.0619"/>
</g>
<!-- A21 -->
<g id="node22" class="node">
<title>A21</title>
<polygon fill="none" stroke="#000000" points="208.1853,-44 138.6067,-44 138.6067,0 214.1853,0 214.1853,-38 208.1853,-44"/>
<polyline fill="none" stroke="#000000" points="208.1853,-44 208.1853,-38 "/>
<polyline fill="none" stroke="#000000" points="214.1853,-38 208.1853,-38 "/>
<text text-anchor="middle" x="176.396" y="-31" font-family="Helvetica,sans-Serif" font-size="10.00" fill="#000000">Success</text>
<text text-anchor="middle" x="176.396" y="-19" font-family="Helvetica,sans-Serif" font-size="10.00" fill="#000000">GitHub</text>
<text text-anchor="middle" x="176.396" y="-7" font-family="Helvetica,sans-Serif" font-size="10.00" fill="#000000">notification</text>
</g>
<!-- A19&#45;&gt;A21 -->
<g id="edge22" class="edge">
<title>A19&#45;&gt;A21</title>
<path fill="none" stroke="#000000" stroke-dasharray="5,2" d="M174.87,-80.7521C175.1541,-69.8118 175.5175,-55.8215 175.8184,-44.2377"/>
</g>
<!-- A19&#45;&gt;A22 -->
<g id="edge23" class="edge">
<title>A19&#45;&gt;A22</title>
<path fill="none" stroke="#000000" d="M194.0658,-80.7521C207.5634,-68.2303 225.3679,-51.7129 238.6604,-39.3812"/>
<polygon fill="#000000" stroke="#000000" points="246.2749,-32.3171 242.0043,-42.4173 242.6094,-35.7177 238.9438,-39.1183 238.9438,-39.1183 238.9438,-39.1183 242.6094,-35.7177 235.8833,-35.8193 246.2749,-32.3171 246.2749,-32.3171"/>
</g>
</g>
</svg>
