<?xml version="1.0" encoding="UTF-8" standalone="no"?>
<!DOCTYPE svg PUBLIC "-//W3C//DTD SVG 1.1//EN"
 "http://www.w3.org/Graphics/SVG/1.1/DTD/svg11.dtd">
<!-- Generated by graphviz version 2.40.1 (20161225.0304)
 -->
<!-- Title: G Pages: 1 -->
<svg width="296pt" height="936pt"
 viewBox="0.00 0.00 295.90 936.00" xmlns="http://www.w3.org/2000/svg" xmlns:xlink="http://www.w3.org/1999/xlink">
<g id="graph0" class="graph" transform="scale(1 1) rotate(0) translate(4 932)">
<title>G</title>
<polygon fill="#ffffff" stroke="transparent" points="-4,4 -4,-932 291.8965,-932 291.8965,4 -4,4"/>
<!-- A0 -->
<g id="node1" class="node">
<title>A0</title>
<polygon fill="#f5f5dc" stroke="#000000" points="79.863,-928 7.819,-928 7.819,-892 85.863,-892 85.863,-922 79.863,-928"/>
<polyline fill="none" stroke="#000000" points="79.863,-928 79.863,-922 "/>
<polyline fill="none" stroke="#000000" points="85.863,-922 79.863,-922 "/>
<text text-anchor="middle" x="46.841" y="-913" font-family="Helvetica,sans-Serif" font-size="10.00" fill="#000000">Push event</text>
<text text-anchor="middle" x="46.841" y="-901" font-family="Helvetica,sans-Serif" font-size="10.00" fill="#000000">activity</text>
</g>
<!-- A1 -->
<g id="node2" class="node">
<title>A1</title>
<ellipse fill="none" stroke="#000000" cx="114.841" cy="-910" rx="11" ry="11"/>
</g>
<!-- A2 -->
<g id="node3" class="node">
<title>A2</title>
<path fill="none" stroke="#000000" d="M141.863,-855C141.863,-855 87.819,-855 87.819,-855 81.819,-855 75.819,-849 75.819,-843 75.819,-843 75.819,-831 75.819,-831 75.819,-825 81.819,-819 87.819,-819 87.819,-819 141.863,-819 141.863,-819 147.863,-819 153.863,-825 153.863,-831 153.863,-831 153.863,-843 153.863,-843 153.863,-849 147.863,-855 141.863,-855"/>
<text text-anchor="middle" x="114.841" y="-834" font-family="Helvetica,sans-Serif" font-size="10.00" fill="#000000">Push event</text>
</g>
<!-- A1&#45;&gt;A2 -->
<g id="edge1" class="edge">
<title>A1&#45;&gt;A2</title>
<path fill="none" stroke="#000000" d="M114.841,-898.9129C114.841,-889.9959 114.841,-877.0618 114.841,-865.3187"/>
<polygon fill="#000000" stroke="#000000" points="114.841,-855.0186 119.3411,-865.0186 114.841,-860.0186 114.8411,-865.0186 114.8411,-865.0186 114.8411,-865.0186 114.841,-860.0186 110.3411,-865.0186 114.841,-855.0186 114.841,-855.0186"/>
</g>
<!-- A3 -->
<g id="node4" class="node">
<title>A3</title>
<polygon fill="none" stroke="#000000" points="75.841,-782 57.841,-764 75.841,-746 93.841,-764 75.841,-782"/>
</g>
<!-- A2&#45;&gt;A3 -->
<g id="edge2" class="edge">
<title>A2&#45;&gt;A3</title>
<path fill="none" stroke="#000000" d="M105.2005,-818.9551C99.7432,-808.7401 92.8878,-795.9081 87.1741,-785.2133"/>
<polygon fill="#000000" stroke="#000000" points="82.3207,-776.1287 91.002,-782.8284 84.6768,-780.5388 87.0329,-784.9489 87.0329,-784.9489 87.0329,-784.9489 84.6768,-780.5388 83.0638,-787.0694 82.3207,-776.1287 82.3207,-776.1287"/>
</g>
<!-- A4 -->
<g id="node5" class="node">
<title>A4</title>
<polygon fill="none" stroke="#000000" points="192.2421,-782 111.4399,-782 111.4399,-746 198.2421,-746 198.2421,-776 192.2421,-782"/>
<polyline fill="none" stroke="#000000" points="192.2421,-782 192.2421,-776 "/>
<polyline fill="none" stroke="#000000" points="198.2421,-776 192.2421,-776 "/>
<text text-anchor="middle" x="154.841" y="-761" font-family="Helvetica,sans-Serif" font-size="10.00" fill="#000000">Every branch</text>
</g>
<!-- A2&#45;&gt;A4 -->
<g id="edge3" class="edge">
<title>A2&#45;&gt;A4</title>
<path fill="none" stroke="#000000" stroke-dasharray="5,2" d="M124.7286,-818.9551C130.8826,-807.7241 138.7699,-793.3298 144.9285,-782.0904"/>
</g>
<!-- A5 -->
<g id="node6" class="node">
<title>A5</title>
<path fill="none" stroke="#000000" d="M118.845,-109C118.845,-109 34.837,-109 34.837,-109 28.837,-109 22.837,-103 22.837,-97 22.837,-97 22.837,-85 22.837,-85 22.837,-79 28.837,-73 34.837,-73 34.837,-73 118.845,-73 118.845,-73 124.845,-73 130.845,-79 130.845,-85 130.845,-85 130.845,-97 130.845,-97 130.845,-103 124.845,-109 118.845,-109"/>
<text text-anchor="middle" x="76.841" y="-88" font-family="Helvetica,sans-Serif" font-size="10.00" fill="#000000">Normal action exit</text>
</g>
<!-- A3&#45;&gt;A5 -->
<g id="edge4" class="edge">
<title>A3&#45;&gt;A5</title>
<path fill="none" stroke="#000000" d="M72.2901,-749.4278C67.5764,-728.7735 59.841,-689.7393 59.841,-656 59.841,-656 59.841,-656 59.841,-187 59.841,-163.8643 64.6875,-138.0662 69.205,-119.0445"/>
<polygon fill="#000000" stroke="#000000" points="71.6481,-109.2339 73.5982,-120.025 70.4398,-114.0858 69.2316,-118.9376 69.2316,-118.9376 69.2316,-118.9376 70.4398,-114.0858 64.8649,-117.8502 71.6481,-109.2339 71.6481,-109.2339"/>
<text text-anchor="middle" x="78.458" y="-442" font-family="Helvetica,sans-Serif" font-size="10.00" fill="#000000">[Commit</text>
<text text-anchor="middle" x="78.458" y="-430" font-family="Helvetica,sans-Serif" font-size="10.00" fill="#000000">contains</text>
<text text-anchor="middle" x="78.458" y="-418" font-family="Helvetica,sans-Serif" font-size="10.00" fill="#000000">tags]</text>
</g>
<!-- A6 -->
<g id="node7" class="node">
<title>A6</title>
<path fill="none" stroke="#000000" d="M158.0754,-674C158.0754,-674 111.6066,-674 111.6066,-674 105.6066,-674 99.6066,-668 99.6066,-662 99.6066,-662 99.6066,-650 99.6066,-650 99.6066,-644 105.6066,-638 111.6066,-638 111.6066,-638 158.0754,-638 158.0754,-638 164.0754,-638 170.0754,-644 170.0754,-650 170.0754,-650 170.0754,-662 170.0754,-662 170.0754,-668 164.0754,-674 158.0754,-674"/>
<text text-anchor="middle" x="134.841" y="-653" font-family="Helvetica,sans-Serif" font-size="10.00" fill="#000000">Checkout</text>
</g>
<!-- A3&#45;&gt;A6 -->
<g id="edge5" class="edge">
<title>A3&#45;&gt;A6</title>
<path fill="none" stroke="#000000" d="M82.3805,-752.0295C91.4113,-735.4985 107.955,-705.2151 120.0569,-683.0624"/>
<polygon fill="#000000" stroke="#000000" points="124.9366,-674.13 124.0915,-685.0633 122.5395,-678.518 120.1424,-682.9059 120.1424,-682.9059 120.1424,-682.9059 122.5395,-678.518 116.1932,-680.7485 124.9366,-674.13 124.9366,-674.13"/>
<text text-anchor="middle" x="141.796" y="-719" font-family="Helvetica,sans-Serif" font-size="10.00" fill="#000000">[Commit</text>
<text text-anchor="middle" x="141.796" y="-707" font-family="Helvetica,sans-Serif" font-size="10.00" fill="#000000">not contains</text>
<text text-anchor="middle" x="141.796" y="-695" font-family="Helvetica,sans-Serif" font-size="10.00" fill="#000000">tags]</text>
</g>
<!-- A16 -->
<g id="node17" class="node">
<title>A16</title>
<polygon fill="none" stroke="#000000" points="103.5235,-36 .1585,-36 .1585,0 109.5235,0 109.5235,-30 103.5235,-36"/>
<polyline fill="none" stroke="#000000" points="103.5235,-36 103.5235,-30 "/>
<polyline fill="none" stroke="#000000" points="109.5235,-30 103.5235,-30 "/>
<text text-anchor="middle" x="54.841" y="-21" font-family="Helvetica,sans-Serif" font-size="10.00" fill="#000000">Success</text>
<text text-anchor="middle" x="54.841" y="-9" font-family="Helvetica,sans-Serif" font-size="10.00" fill="#000000">GitHub notification</text>
</g>
<!-- A5&#45;&gt;A16 -->
<g id="edge17" class="edge">
<title>A5&#45;&gt;A16</title>
<path fill="none" stroke="#000000" stroke-dasharray="5,2" d="M71.4028,-72.9551C68.0181,-61.7241 63.6801,-47.3298 60.2929,-36.0904"/>
</g>
<!-- A17 -->
<g id="node18" class="node">
<title>A17</title>
<ellipse fill="none" stroke="#000000" cx="142.841" cy="-18" rx="11" ry="11"/>
<ellipse fill="none" stroke="#000000" cx="142.841" cy="-18" rx="15" ry="15"/>
</g>
<!-- A5&#45;&gt;A17 -->
<g id="edge19" class="edge">
<title>A5&#45;&gt;A17</title>
<path fill="none" stroke="#000000" d="M93.1556,-72.9551C103.108,-61.9471 115.808,-47.9001 125.8767,-36.7635"/>
<polygon fill="#000000" stroke="#000000" points="132.6664,-29.2537 129.2979,-39.6895 129.3131,-32.9626 125.9599,-36.6715 125.9599,-36.6715 125.9599,-36.6715 129.3131,-32.9626 122.6219,-33.6536 132.6664,-29.2537 132.6664,-29.2537"/>
</g>
<!-- A7 -->
<g id="node8" class="node">
<title>A7</title>
<path fill="none" stroke="#000000" d="M196.4841,-601C196.4841,-601 101.1979,-601 101.1979,-601 95.1979,-601 89.1979,-595 89.1979,-589 89.1979,-589 89.1979,-577 89.1979,-577 89.1979,-571 95.1979,-565 101.1979,-565 101.1979,-565 196.4841,-565 196.4841,-565 202.4841,-565 208.4841,-571 208.4841,-577 208.4841,-577 208.4841,-589 208.4841,-589 208.4841,-595 202.4841,-601 196.4841,-601"/>
<text text-anchor="middle" x="148.841" y="-580" font-family="Helvetica,sans-Serif" font-size="10.00" fill="#000000">Install dependencies</text>
</g>
<!-- A6&#45;&gt;A7 -->
<g id="edge6" class="edge">
<title>A6&#45;&gt;A7</title>
<path fill="none" stroke="#000000" d="M138.3017,-637.9551C139.8498,-629.8828 141.7113,-620.1764 143.4363,-611.1817"/>
<polygon fill="#000000" stroke="#000000" points="145.3716,-601.0904 147.9075,-611.759 144.4298,-606.0009 143.4881,-610.9114 143.4881,-610.9114 143.4881,-610.9114 144.4298,-606.0009 139.0686,-610.0638 145.3716,-601.0904 145.3716,-601.0904"/>
</g>
<!-- A8 -->
<g id="node9" class="node">
<title>A8</title>
<path fill="none" stroke="#000000" d="M199.4227,-528C199.4227,-528 100.2593,-528 100.2593,-528 94.2593,-528 88.2593,-522 88.2593,-516 88.2593,-516 88.2593,-504 88.2593,-504 88.2593,-498 94.2593,-492 100.2593,-492 100.2593,-492 199.4227,-492 199.4227,-492 205.4227,-492 211.4227,-498 211.4227,-504 211.4227,-504 211.4227,-516 211.4227,-516 211.4227,-522 205.4227,-528 199.4227,-528"/>
<text text-anchor="middle" x="149.841" y="-507" font-family="Helvetica,sans-Serif" font-size="10.00" fill="#000000">Run code linting tests</text>
</g>
<!-- A7&#45;&gt;A8 -->
<g id="edge7" class="edge">
<title>A7&#45;&gt;A8</title>
<path fill="none" stroke="#000000" d="M149.0882,-564.9551C149.1988,-556.8828 149.3317,-547.1764 149.4549,-538.1817"/>
<polygon fill="#000000" stroke="#000000" points="149.5932,-528.0904 153.9557,-538.1511 149.5247,-533.0899 149.4561,-538.0894 149.4561,-538.0894 149.4561,-538.0894 149.5247,-533.0899 144.9565,-538.0277 149.5932,-528.0904 149.5932,-528.0904"/>
</g>
<!-- A9 -->
<g id="node10" class="node">
<title>A9</title>
<polygon fill="none" stroke="#000000" points="281.9521,-455 183.7299,-455 183.7299,-411 287.9521,-411 287.9521,-449 281.9521,-455"/>
<polyline fill="none" stroke="#000000" points="281.9521,-455 281.9521,-449 "/>
<polyline fill="none" stroke="#000000" points="287.9521,-449 281.9521,-449 "/>
<text text-anchor="middle" x="235.841" y="-442" font-family="Helvetica,sans-Serif" font-size="10.00" fill="#000000">Skipped for now</text>
<text text-anchor="middle" x="235.841" y="-430" font-family="Helvetica,sans-Serif" font-size="10.00" fill="#000000">until linting errors</text>
<text text-anchor="middle" x="235.841" y="-418" font-family="Helvetica,sans-Serif" font-size="10.00" fill="#000000">not fixed</text>
</g>
<!-- A8&#45;&gt;A9 -->
<g id="edge8" class="edge">
<title>A8&#45;&gt;A9</title>
<path fill="none" stroke="#000000" stroke-dasharray="5,2" d="M170.2218,-491.7521C182.4408,-480.8118 198.0663,-466.8215 211.0041,-455.2377"/>
</g>
<!-- A10 -->
<g id="node11" class="node">
<title>A10</title>
<polygon fill="none" stroke="#000000" points="147.841,-451 129.841,-433 147.841,-415 165.841,-433 147.841,-451"/>
</g>
<!-- A8&#45;&gt;A10 -->
<g id="edge9" class="edge">
<title>A8&#45;&gt;A10</title>
<path fill="none" stroke="#000000" d="M149.367,-491.7521C149.127,-482.5101 148.8304,-471.0916 148.5627,-460.7859"/>
<polygon fill="#000000" stroke="#000000" points="148.2978,-450.5869 153.056,-460.4667 148.4277,-455.5852 148.5576,-460.5836 148.5576,-460.5836 148.5576,-460.5836 148.4277,-455.5852 144.0591,-460.7004 148.2978,-450.5869 148.2978,-450.5869"/>
</g>
<!-- A11 -->
<g id="node12" class="node">
<title>A11</title>
<path fill="none" stroke="#000000" d="M239.0196,-109C239.0196,-109 178.6624,-109 178.6624,-109 172.6624,-109 166.6624,-103 166.6624,-97 166.6624,-97 166.6624,-85 166.6624,-85 166.6624,-79 172.6624,-73 178.6624,-73 178.6624,-73 239.0196,-73 239.0196,-73 245.0196,-73 251.0196,-79 251.0196,-85 251.0196,-85 251.0196,-97 251.0196,-97 251.0196,-103 245.0196,-109 239.0196,-109"/>
<text text-anchor="middle" x="208.841" y="-88" font-family="Helvetica,sans-Serif" font-size="10.00" fill="#000000">Failed action</text>
</g>
<!-- A10&#45;&gt;A11 -->
<g id="edge10" class="edge">
<title>A10&#45;&gt;A11</title>
<path fill="none" stroke="#000000" d="M157.5279,-424.429C162.5371,-420.1746 168.8445,-415.0853 174.841,-411 188.3266,-401.8125 196.3595,-405.5064 206.841,-393 224.9888,-371.3464 227.841,-361.2528 227.841,-333 227.841,-333 227.841,-333 227.841,-187 227.841,-163.7769 222.4243,-137.9847 217.3753,-118.9875"/>
<polygon fill="#000000" stroke="#000000" points="214.6449,-109.192 221.6648,-117.6164 215.9875,-114.0084 217.33,-118.8248 217.33,-118.8248 217.33,-118.8248 215.9875,-114.0084 212.9953,-120.0331 214.6449,-109.192 214.6449,-109.192"/>
<text text-anchor="middle" x="255.905" y="-263" font-family="Helvetica,sans-Serif" font-size="10.00" fill="#000000">[Linting tests</text>
<text text-anchor="middle" x="255.905" y="-251" font-family="Helvetica,sans-Serif" font-size="10.00" fill="#000000">failed]</text>
</g>
<!-- A12 -->
<g id="node13" class="node">
<title>A12</title>
<path fill="none" stroke="#000000" d="M187.755,-351C187.755,-351 99.927,-351 99.927,-351 93.927,-351 87.927,-345 87.927,-339 87.927,-339 87.927,-327 87.927,-327 87.927,-321 93.927,-315 99.927,-315 99.927,-315 187.755,-315 187.755,-315 193.755,-315 199.755,-321 199.755,-327 199.755,-327 199.755,-339 199.755,-339 199.755,-345 193.755,-351 187.755,-351"/>
<text text-anchor="middle" x="143.841" y="-336" font-family="Helvetica,sans-Serif" font-size="10.00" fill="#000000">Setup environment</text>
<text text-anchor="middle" x="143.841" y="-324" font-family="Helvetica,sans-Serif" font-size="10.00" fill="#000000">for unit tests</text>
</g>
<!-- A10&#45;&gt;A12 -->
<g id="edge11" class="edge">
<title>A10&#45;&gt;A12</title>
<path fill="none" stroke="#000000" d="M147.1443,-415.5813C146.5474,-400.6597 145.6762,-378.8809 144.9784,-361.4351"/>
<polygon fill="#000000" stroke="#000000" points="144.5703,-351.2325 149.4665,-361.0446 144.7702,-356.2285 144.9701,-361.2245 144.9701,-361.2245 144.9701,-361.2245 144.7702,-356.2285 140.4737,-361.4044 144.5703,-351.2325 144.5703,-351.2325"/>
<text text-anchor="middle" x="174.625" y="-384" font-family="Helvetica,sans-Serif" font-size="10.00" fill="#000000">[Linling tests</text>
<text text-anchor="middle" x="174.625" y="-372" font-family="Helvetica,sans-Serif" font-size="10.00" fill="#000000"> succeeded]</text>
</g>
<!-- A15 -->
<g id="node16" class="node">
<title>A15</title>
<polygon fill="none" stroke="#000000" points="279.5235,-36 176.1585,-36 176.1585,0 285.5235,0 285.5235,-30 279.5235,-36"/>
<polyline fill="none" stroke="#000000" points="279.5235,-36 279.5235,-30 "/>
<polyline fill="none" stroke="#000000" points="285.5235,-30 279.5235,-30 "/>
<text text-anchor="middle" x="230.841" y="-21" font-family="Helvetica,sans-Serif" font-size="10.00" fill="#000000">Failure</text>
<text text-anchor="middle" x="230.841" y="-9" font-family="Helvetica,sans-Serif" font-size="10.00" fill="#000000">GitHub notification</text>
</g>
<!-- A11&#45;&gt;A15 -->
<g id="edge16" class="edge">
<title>A11&#45;&gt;A15</title>
<path fill="none" stroke="#000000" stroke-dasharray="5,2" d="M214.2792,-72.9551C217.6639,-61.7241 222.0019,-47.3298 225.3891,-36.0904"/>
</g>
<!-- A11&#45;&gt;A17 -->
<g id="edge18" class="edge">
<title>A11&#45;&gt;A17</title>
<path fill="none" stroke="#000000" d="M192.5264,-72.9551C182.574,-61.9471 169.874,-47.9001 159.8053,-36.7635"/>
<polygon fill="#000000" stroke="#000000" points="153.0156,-29.2537 163.0601,-33.6536 156.3689,-32.9626 159.7221,-36.6715 159.7221,-36.6715 159.7221,-36.6715 156.3689,-32.9626 156.3841,-39.6895 153.0156,-29.2537 153.0156,-29.2537"/>
</g>
<!-- A13 -->
<g id="node14" class="node">
<title>A13</title>
<path fill="none" stroke="#000000" d="M176.4691,-278C176.4691,-278 111.2129,-278 111.2129,-278 105.2129,-278 99.2129,-272 99.2129,-266 99.2129,-266 99.2129,-254 99.2129,-254 99.2129,-248 105.2129,-242 111.2129,-242 111.2129,-242 176.4691,-242 176.4691,-242 182.4691,-242 188.4691,-248 188.4691,-254 188.4691,-254 188.4691,-266 188.4691,-266 188.4691,-272 182.4691,-278 176.4691,-278"/>
<text text-anchor="middle" x="143.841" y="-257" font-family="Helvetica,sans-Serif" font-size="10.00" fill="#000000">Run unit tests</text>
</g>
<!-- A12&#45;&gt;A13 -->
<g id="edge12" class="edge">
<title>A12&#45;&gt;A13</title>
<path fill="none" stroke="#000000" d="M143.841,-314.9551C143.841,-306.8828 143.841,-297.1764 143.841,-288.1817"/>
<polygon fill="#000000" stroke="#000000" points="143.841,-278.0904 148.3411,-288.0903 143.841,-283.0904 143.8411,-288.0904 143.8411,-288.0904 143.8411,-288.0904 143.841,-283.0904 139.3411,-288.0904 143.841,-278.0904 143.841,-278.0904"/>
</g>
<!-- A14 -->
<g id="node15" class="node">
<title>A14</title>
<polygon fill="none" stroke="#000000" points="143.841,-205 125.841,-187 143.841,-169 161.841,-187 143.841,-205"/>
</g>
<!-- A13&#45;&gt;A14 -->
<g id="edge13" class="edge">
<title>A13&#45;&gt;A14</title>
<path fill="none" stroke="#000000" d="M143.841,-241.9551C143.841,-233.8828 143.841,-224.1764 143.841,-215.1817"/>
<polygon fill="#000000" stroke="#000000" points="143.841,-205.0904 148.3411,-215.0903 143.841,-210.0904 143.8411,-215.0904 143.8411,-215.0904 143.8411,-215.0904 143.841,-210.0904 139.3411,-215.0904 143.841,-205.0904 143.841,-205.0904"/>
</g>
<!-- A14&#45;&gt;A5 -->
<g id="edge15" class="edge">
<title>A14&#45;&gt;A5</title>
<path fill="none" stroke="#000000" d="M132.886,-179.8611C123.5457,-173.3043 110.3039,-162.8313 101.708,-151 94.7266,-141.3909 89.2803,-129.5311 85.2878,-118.8996"/>
<polygon fill="#000000" stroke="#000000" points="81.9028,-109.1966 89.4456,-117.1562 83.5498,-113.9175 85.1968,-118.6385 85.1968,-118.6385 85.1968,-118.6385 83.5498,-113.9175 80.9479,-120.1208 81.9028,-109.1966 81.9028,-109.1966"/>
<text text-anchor="middle" x="127.4075" y="-142" font-family="Helvetica,sans-Serif" font-size="10.00" fill="#000000">[Unit tests</text>
<text text-anchor="middle" x="127.4075" y="-130" font-family="Helvetica,sans-Serif" font-size="10.00" fill="#000000">succeeded]</text>
</g>
<!-- A14&#45;&gt;A11 -->
<g id="edge14" class="edge">
<title>A14&#45;&gt;A11</title>
<path fill="none" stroke="#000000" d="M147.9734,-172.7884C152.1074,-160.0461 159.3044,-141.2223 169.39,-127 171.9947,-123.327 175.0308,-119.7521 178.2409,-116.3701"/>
<polygon fill="#000000" stroke="#000000" points="185.4465,-109.3117 181.4518,-119.5242 181.8747,-112.8106 178.3028,-116.3095 178.3028,-116.3095 178.3028,-116.3095 181.8747,-112.8106 175.1539,-113.0948 185.4465,-109.3117 185.4465,-109.3117"/>
<text text-anchor="middle" x="191.0665" y="-142" font-family="Helvetica,sans-Serif" font-size="10.00" fill="#000000">[Unit tests</text>
<text text-anchor="middle" x="191.0665" y="-130" font-family="Helvetica,sans-Serif" font-size="10.00" fill="#000000">failed]</text>
</g>
</g>
</svg>
