<?xml version="1.0" encoding="UTF-8" standalone="no"?>
<!DOCTYPE svg PUBLIC "-//W3C//DTD SVG 1.1//EN"
 "http://www.w3.org/Graphics/SVG/1.1/DTD/svg11.dtd">
<!-- Generated by graphviz version 2.40.1 (20161225.0304)
 -->
<!-- Title: G Pages: 1 -->
<svg width="693pt" height="1556pt"
 viewBox="0.00 0.00 693.40 1556.00" xmlns="http://www.w3.org/2000/svg" xmlns:xlink="http://www.w3.org/1999/xlink">
<g id="graph0" class="graph" transform="scale(1 1) rotate(0) translate(4 1552)">
<title>G</title>
<polygon fill="#ffffff" stroke="transparent" points="-4,4 -4,-1552 689.403,-1552 689.403,4 -4,4"/>
<!-- A0 -->
<g id="node1" class="node">
<title>A0</title>
<polygon fill="#f5f5dc" stroke="#000000" points="76.6642,-1548 -.2222,-1548 -.2222,-1512 82.6642,-1512 82.6642,-1542 76.6642,-1548"/>
<polyline fill="none" stroke="#000000" points="76.6642,-1548 76.6642,-1542 "/>
<polyline fill="none" stroke="#000000" points="82.6642,-1542 76.6642,-1542 "/>
<text text-anchor="middle" x="41.221" y="-1533" font-family="Helvetica,sans-Serif" font-size="10.00" fill="#000000">PR Reviews</text>
<text text-anchor="middle" x="41.221" y="-1521" font-family="Helvetica,sans-Serif" font-size="10.00" fill="#000000">activity</text>
</g>
<!-- A1 -->
<g id="node2" class="node">
<title>A1</title>
<ellipse fill="none" stroke="#000000" cx="111.221" cy="-1530" rx="11" ry="11"/>
</g>
<!-- A2 -->
<g id="node3" class="node">
<title>A2</title>
<path fill="none" stroke="#000000" d="M166.3521,-1475C166.3521,-1475 56.0899,-1475 56.0899,-1475 50.0899,-1475 44.0899,-1469 44.0899,-1463 44.0899,-1463 44.0899,-1451 44.0899,-1451 44.0899,-1445 50.0899,-1439 56.0899,-1439 56.0899,-1439 166.3521,-1439 166.3521,-1439 172.3521,-1439 178.3521,-1445 178.3521,-1451 178.3521,-1451 178.3521,-1463 178.3521,-1463 178.3521,-1469 172.3521,-1475 166.3521,-1475"/>
<text text-anchor="middle" x="111.221" y="-1454" font-family="Helvetica,sans-Serif" font-size="10.00" fill="#000000">Review submitted event</text>
</g>
<!-- A1&#45;&gt;A2 -->
<g id="edge1" class="edge">
<title>A1&#45;&gt;A2</title>
<path fill="none" stroke="#000000" d="M111.221,-1518.9129C111.221,-1509.9959 111.221,-1497.0618 111.221,-1485.3187"/>
<polygon fill="#000000" stroke="#000000" points="111.221,-1475.0186 115.7211,-1485.0186 111.221,-1480.0186 111.2211,-1485.0186 111.2211,-1485.0186 111.2211,-1485.0186 111.221,-1480.0186 106.7211,-1485.0186 111.221,-1475.0186 111.221,-1475.0186"/>
</g>
<!-- A3 -->
<g id="node4" class="node">
<title>A3</title>
<polygon fill="none" stroke="#000000" points="129.734,-1402 62.708,-1402 62.708,-1358 135.734,-1358 135.734,-1396 129.734,-1402"/>
<polyline fill="none" stroke="#000000" points="129.734,-1402 129.734,-1396 "/>
<polyline fill="none" stroke="#000000" points="135.734,-1396 129.734,-1396 "/>
<text text-anchor="middle" x="99.221" y="-1389" font-family="Helvetica,sans-Serif" font-size="10.00" fill="#000000">Branches:</text>
<text text-anchor="middle" x="99.221" y="-1377" font-family="Helvetica,sans-Serif" font-size="10.00" fill="#000000">&#45; develop</text>
<text text-anchor="middle" x="99.221" y="-1365" font-family="Helvetica,sans-Serif" font-size="10.00" fill="#000000">&#45; master</text>
</g>
<!-- A2&#45;&gt;A3 -->
<g id="edge2" class="edge">
<title>A2&#45;&gt;A3</title>
<path fill="none" stroke="#000000" stroke-dasharray="5,2" d="M108.3772,-1438.7521C106.6722,-1427.8118 104.4919,-1413.8215 102.6866,-1402.2377"/>
</g>
<!-- A4 -->
<g id="node5" class="node">
<title>A4</title>
<path fill="none" stroke="#000000" d="M212.4554,-1398C212.4554,-1398 165.9866,-1398 165.9866,-1398 159.9866,-1398 153.9866,-1392 153.9866,-1386 153.9866,-1386 153.9866,-1374 153.9866,-1374 153.9866,-1368 159.9866,-1362 165.9866,-1362 165.9866,-1362 212.4554,-1362 212.4554,-1362 218.4554,-1362 224.4554,-1368 224.4554,-1374 224.4554,-1374 224.4554,-1386 224.4554,-1386 224.4554,-1392 218.4554,-1398 212.4554,-1398"/>
<text text-anchor="middle" x="189.221" y="-1377" font-family="Helvetica,sans-Serif" font-size="10.00" fill="#000000">Checkout</text>
</g>
<!-- A2&#45;&gt;A4 -->
<g id="edge3" class="edge">
<title>A2&#45;&gt;A4</title>
<path fill="none" stroke="#000000" d="M129.7059,-1438.7521C139.8084,-1428.7791 152.4783,-1416.2716 163.5287,-1405.3629"/>
<polygon fill="#000000" stroke="#000000" points="170.8688,-1398.1169 166.9136,-1408.3447 167.3105,-1401.6296 163.7522,-1405.1423 163.7522,-1405.1423 163.7522,-1405.1423 167.3105,-1401.6296 160.5908,-1401.9398 170.8688,-1398.1169 170.8688,-1398.1169"/>
</g>
<!-- A5 -->
<g id="node6" class="node">
<title>A5</title>
<path fill="none" stroke="#000000" d="M222.4713,-1321C222.4713,-1321 155.9707,-1321 155.9707,-1321 149.9707,-1321 143.9707,-1315 143.9707,-1309 143.9707,-1309 143.9707,-1297 143.9707,-1297 143.9707,-1291 149.9707,-1285 155.9707,-1285 155.9707,-1285 222.4713,-1285 222.4713,-1285 228.4713,-1285 234.4713,-1291 234.4713,-1297 234.4713,-1297 234.4713,-1309 234.4713,-1309 234.4713,-1315 228.4713,-1321 222.4713,-1321"/>
<text text-anchor="middle" x="189.221" y="-1306" font-family="Helvetica,sans-Serif" font-size="10.00" fill="#000000">Install</text>
<text text-anchor="middle" x="189.221" y="-1294" font-family="Helvetica,sans-Serif" font-size="10.00" fill="#000000">dependencies</text>
</g>
<!-- A4&#45;&gt;A5 -->
<g id="edge4" class="edge">
<title>A4&#45;&gt;A5</title>
<path fill="none" stroke="#000000" d="M189.221,-1361.7521C189.221,-1352.6422 189.221,-1341.4174 189.221,-1331.2282"/>
<polygon fill="#000000" stroke="#000000" points="189.221,-1321.1169 193.7211,-1331.1169 189.221,-1326.1169 189.2211,-1331.1169 189.2211,-1331.1169 189.2211,-1331.1169 189.221,-1326.1169 184.7211,-1331.117 189.221,-1321.1169 189.221,-1321.1169"/>
</g>
<!-- A6 -->
<g id="node7" class="node">
<title>A6</title>
<path fill="none" stroke="#000000" d="M235.625,-1248C235.625,-1248 142.817,-1248 142.817,-1248 136.817,-1248 130.817,-1242 130.817,-1236 130.817,-1236 130.817,-1224 130.817,-1224 130.817,-1218 136.817,-1212 142.817,-1212 142.817,-1212 235.625,-1212 235.625,-1212 241.625,-1212 247.625,-1218 247.625,-1224 247.625,-1224 247.625,-1236 247.625,-1236 247.625,-1242 241.625,-1248 235.625,-1248"/>
<text text-anchor="middle" x="189.221" y="-1227" font-family="Helvetica,sans-Serif" font-size="10.00" fill="#000000">Get review requests</text>
</g>
<!-- A5&#45;&gt;A6 -->
<g id="edge5" class="edge">
<title>A5&#45;&gt;A6</title>
<path fill="none" stroke="#000000" d="M189.221,-1284.9551C189.221,-1276.8828 189.221,-1267.1764 189.221,-1258.1817"/>
<polygon fill="#000000" stroke="#000000" points="189.221,-1248.0904 193.7211,-1258.0903 189.221,-1253.0904 189.2211,-1258.0904 189.2211,-1258.0904 189.2211,-1258.0904 189.221,-1253.0904 184.7211,-1258.0904 189.221,-1248.0904 189.221,-1248.0904"/>
</g>
<!-- A7 -->
<g id="node8" class="node">
<title>A7</title>
<polygon fill="none" stroke="#000000" points="145.221,-1175 127.221,-1157 145.221,-1139 163.221,-1157 145.221,-1175"/>
</g>
<!-- A6&#45;&gt;A7 -->
<g id="edge6" class="edge">
<title>A6&#45;&gt;A7</title>
<path fill="none" stroke="#000000" d="M178.3446,-1211.9551C171.9673,-1201.3746 163.8978,-1187.9866 157.3203,-1177.0738"/>
<polygon fill="#000000" stroke="#000000" points="152.0041,-1168.2537 161.0204,-1174.4953 154.5852,-1172.536 157.1663,-1176.8183 157.1663,-1176.8183 157.1663,-1176.8183 154.5852,-1172.536 153.3123,-1179.1413 152.0041,-1168.2537 152.0041,-1168.2537"/>
</g>
<!-- A8 -->
<g id="node9" class="node">
<title>A8</title>
<polygon fill="none" stroke="#000000" points="278.8068,-1175 181.6352,-1175 181.6352,-1139 284.8068,-1139 284.8068,-1169 278.8068,-1175"/>
<polyline fill="none" stroke="#000000" points="278.8068,-1175 278.8068,-1169 "/>
<polyline fill="none" stroke="#000000" points="284.8068,-1169 278.8068,-1169 "/>
<text text-anchor="middle" x="233.221" y="-1160" font-family="Helvetica,sans-Serif" font-size="10.00" fill="#000000">Configured with</text>
<text text-anchor="middle" x="233.221" y="-1148" font-family="Helvetica,sans-Serif" font-size="10.00" fill="#000000">Github API token</text>
</g>
<!-- A6&#45;&gt;A8 -->
<g id="edge7" class="edge">
<title>A6&#45;&gt;A8</title>
<path fill="none" stroke="#000000" stroke-dasharray="5,2" d="M200.0974,-1211.9551C206.8667,-1200.7241 215.5428,-1186.3298 222.3172,-1175.0904"/>
</g>
<!-- A9 -->
<g id="node10" class="node">
<title>A9</title>
<path fill="none" stroke="#000000" d="M356.225,-117C356.225,-117 272.217,-117 272.217,-117 266.217,-117 260.217,-111 260.217,-105 260.217,-105 260.217,-93 260.217,-93 260.217,-87 266.217,-81 272.217,-81 272.217,-81 356.225,-81 356.225,-81 362.225,-81 368.225,-87 368.225,-93 368.225,-93 368.225,-105 368.225,-105 368.225,-111 362.225,-117 356.225,-117"/>
<text text-anchor="middle" x="314.221" y="-96" font-family="Helvetica,sans-Serif" font-size="10.00" fill="#000000">Normal action exit</text>
</g>
<!-- A7&#45;&gt;A9 -->
<g id="edge8" class="edge">
<title>A7&#45;&gt;A9</title>
<path fill="none" stroke="#000000" d="M140.9333,-1143.1824C136.1939,-1126.6604 129.221,-1098.0889 129.221,-1073 129.221,-1073 129.221,-1073 129.221,-195 129.221,-139.0798 196.6387,-115.6902 250.0777,-105.934"/>
<polygon fill="#000000" stroke="#000000" points="260.214,-104.2125 251.1087,-110.3235 255.2846,-105.0498 250.3552,-105.887 250.3552,-105.887 250.3552,-105.887 255.2846,-105.0498 249.6017,-101.4505 260.214,-104.2125 260.214,-104.2125"/>
<text text-anchor="middle" x="159.78" y="-660" font-family="Helvetica,sans-Serif" font-size="10.00" fill="#000000">[List is empty]</text>
</g>
<!-- A10 -->
<g id="node11" class="node">
<title>A10</title>
<polygon fill="none" stroke="#000000" points="218.221,-1091 200.221,-1073 218.221,-1055 236.221,-1073 218.221,-1091"/>
</g>
<!-- A7&#45;&gt;A10 -->
<g id="edge9" class="edge">
<title>A7&#45;&gt;A10</title>
<path fill="none" stroke="#000000" d="M153.595,-1147.3641C165.6319,-1133.5135 188.0234,-1107.7479 203.0261,-1090.4845"/>
<polygon fill="#000000" stroke="#000000" points="209.7198,-1082.7822 206.5568,-1093.2821 206.44,-1086.5562 203.1602,-1090.3302 203.1602,-1090.3302 203.1602,-1090.3302 206.44,-1086.5562 199.7636,-1087.3784 209.7198,-1082.7822 209.7198,-1082.7822"/>
<text text-anchor="middle" x="217.344" y="-1112" font-family="Helvetica,sans-Serif" font-size="10.00" fill="#000000">[List obtained]</text>
</g>
<!-- A24 -->
<g id="node25" class="node">
<title>A24</title>
<polygon fill="none" stroke="#000000" points="257.0103,-44 187.4317,-44 187.4317,0 263.0103,0 263.0103,-38 257.0103,-44"/>
<polyline fill="none" stroke="#000000" points="257.0103,-44 257.0103,-38 "/>
<polyline fill="none" stroke="#000000" points="263.0103,-38 257.0103,-38 "/>
<text text-anchor="middle" x="225.221" y="-31" font-family="Helvetica,sans-Serif" font-size="10.00" fill="#000000">Success</text>
<text text-anchor="middle" x="225.221" y="-19" font-family="Helvetica,sans-Serif" font-size="10.00" fill="#000000">GitHub</text>
<text text-anchor="middle" x="225.221" y="-7" font-family="Helvetica,sans-Serif" font-size="10.00" fill="#000000">notification</text>
</g>
<!-- A9&#45;&gt;A24 -->
<g id="edge28" class="edge">
<title>A9&#45;&gt;A24</title>
<path fill="none" stroke="#000000" stroke-dasharray="5,2" d="M293.1292,-80.7521C280.484,-69.8118 264.3134,-55.8215 250.9243,-44.2377"/>
</g>
<!-- A25 -->
<g id="node26" class="node">
<title>A25</title>
<polygon fill="none" stroke="#000000" points="351.0103,-44 281.4317,-44 281.4317,0 357.0103,0 357.0103,-38 351.0103,-44"/>
<polyline fill="none" stroke="#000000" points="351.0103,-44 351.0103,-38 "/>
<polyline fill="none" stroke="#000000" points="357.0103,-38 351.0103,-38 "/>
<text text-anchor="middle" x="319.221" y="-31" font-family="Helvetica,sans-Serif" font-size="10.00" fill="#000000">Merge</text>
<text text-anchor="middle" x="319.221" y="-19" font-family="Helvetica,sans-Serif" font-size="10.00" fill="#000000">GitHub</text>
<text text-anchor="middle" x="319.221" y="-7" font-family="Helvetica,sans-Serif" font-size="10.00" fill="#000000">notification</text>
</g>
<!-- A9&#45;&gt;A25 -->
<g id="edge29" class="edge">
<title>A9&#45;&gt;A25</title>
<path fill="none" stroke="#000000" stroke-dasharray="5,2" d="M315.4059,-80.7521C316.1163,-69.8118 317.0248,-55.8215 317.777,-44.2377"/>
</g>
<!-- A26 -->
<g id="node27" class="node">
<title>A26</title>
<ellipse fill="none" stroke="#000000" cx="408.221" cy="-22" rx="11" ry="11"/>
<ellipse fill="none" stroke="#000000" cx="408.221" cy="-22" rx="15" ry="15"/>
</g>
<!-- A9&#45;&gt;A26 -->
<g id="edge30" class="edge">
<title>A9&#45;&gt;A26</title>
<path fill="none" stroke="#000000" d="M336.4977,-80.7521C352.3473,-67.7689 373.4408,-50.4902 388.6452,-38.0355"/>
<polygon fill="#000000" stroke="#000000" points="396.4155,-31.6705 391.5311,-41.4886 392.5475,-34.8389 388.6795,-38.0074 388.6795,-38.0074 388.6795,-38.0074 392.5475,-34.8389 385.8279,-34.5262 396.4155,-31.6705 396.4155,-31.6705"/>
</g>
<!-- A10&#45;&gt;A9 -->
<g id="edge10" class="edge">
<title>A10&#45;&gt;A9</title>
<path fill="none" stroke="#000000" d="M218.221,-1054.9527C218.221,-1035.6577 218.221,-1004.1667 218.221,-977 218.221,-977 218.221,-977 218.221,-195 218.221,-163.6898 244.0695,-139.0247 268.941,-122.5389"/>
<polygon fill="#000000" stroke="#000000" points="277.6537,-117.0513 271.5904,-126.1885 273.4229,-119.716 269.1921,-122.3808 269.1921,-122.3808 269.1921,-122.3808 273.4229,-119.716 266.7939,-118.5731 277.6537,-117.0513 277.6537,-117.0513"/>
<text text-anchor="middle" x="256.5595" y="-618" font-family="Helvetica,sans-Serif" font-size="10.00" fill="#000000">[Review requests</text>
<text text-anchor="middle" x="256.5595" y="-606" font-family="Helvetica,sans-Serif" font-size="10.00" fill="#000000">list is empty]</text>
</g>
<!-- A11 -->
<g id="node12" class="node">
<title>A11</title>
<path fill="none" stroke="#000000" d="M338.5023,-995C338.5023,-995 281.9397,-995 281.9397,-995 275.9397,-995 269.9397,-989 269.9397,-983 269.9397,-983 269.9397,-971 269.9397,-971 269.9397,-965 275.9397,-959 281.9397,-959 281.9397,-959 338.5023,-959 338.5023,-959 344.5023,-959 350.5023,-965 350.5023,-971 350.5023,-971 350.5023,-983 350.5023,-983 350.5023,-989 344.5023,-995 338.5023,-995"/>
<text text-anchor="middle" x="310.221" y="-974" font-family="Helvetica,sans-Serif" font-size="10.00" fill="#000000">Get reviews</text>
</g>
<!-- A10&#45;&gt;A11 -->
<g id="edge11" class="edge">
<title>A10&#45;&gt;A11</title>
<path fill="none" stroke="#000000" d="M227.0423,-1063.7951C240.4419,-1049.813 266.4126,-1022.7131 285.7866,-1002.4968"/>
<polygon fill="#000000" stroke="#000000" points="292.8489,-995.1274 289.1788,-1005.4609 289.3894,-998.7373 285.9298,-1002.3473 285.9298,-1002.3473 285.9298,-1002.3473 289.3894,-998.7373 282.6809,-999.2337 292.8489,-995.1274 292.8489,-995.1274"/>
<text text-anchor="middle" x="312.5595" y="-1028" font-family="Helvetica,sans-Serif" font-size="10.00" fill="#000000">[Review requests</text>
<text text-anchor="middle" x="312.5595" y="-1016" font-family="Helvetica,sans-Serif" font-size="10.00" fill="#000000">assigned]</text>
</g>
<!-- A12 -->
<g id="node13" class="node">
<title>A12</title>
<polygon fill="none" stroke="#000000" points="310.221,-922 292.221,-904 310.221,-886 328.221,-904 310.221,-922"/>
</g>
<!-- A11&#45;&gt;A12 -->
<g id="edge12" class="edge">
<title>A11&#45;&gt;A12</title>
<path fill="none" stroke="#000000" d="M310.221,-958.9551C310.221,-950.8828 310.221,-941.1764 310.221,-932.1817"/>
<polygon fill="#000000" stroke="#000000" points="310.221,-922.0904 314.7211,-932.0903 310.221,-927.0904 310.2211,-932.0904 310.2211,-932.0904 310.2211,-932.0904 310.221,-927.0904 305.7211,-932.0904 310.221,-922.0904 310.221,-922.0904"/>
</g>
<!-- A13 -->
<g id="node14" class="node">
<title>A13</title>
<polygon fill="none" stroke="#000000" points="446.5856,-922 345.8564,-922 345.8564,-886 452.5856,-886 452.5856,-916 446.5856,-922"/>
<polyline fill="none" stroke="#000000" points="446.5856,-922 446.5856,-916 "/>
<polyline fill="none" stroke="#000000" points="452.5856,-916 446.5856,-916 "/>
<text text-anchor="middle" x="399.221" y="-907" font-family="Helvetica,sans-Serif" font-size="10.00" fill="#000000">Configured with</text>
<text text-anchor="middle" x="399.221" y="-895" font-family="Helvetica,sans-Serif" font-size="10.00" fill="#000000">Github API token.</text>
</g>
<!-- A11&#45;&gt;A13 -->
<g id="edge13" class="edge">
<title>A11&#45;&gt;A13</title>
<path fill="none" stroke="#000000" stroke-dasharray="5,2" d="M332.221,-958.9551C345.9135,-947.7241 363.4628,-933.3298 377.1656,-922.0904"/>
</g>
<!-- A12&#45;&gt;A9 -->
<g id="edge14" class="edge">
<title>A12&#45;&gt;A9</title>
<path fill="none" stroke="#000000" d="M310.221,-885.9756C310.221,-868.9658 310.221,-842.75 310.221,-820 310.221,-820 310.221,-820 310.221,-195 310.221,-172.1644 311.3648,-146.2999 312.4291,-127.1757"/>
<polygon fill="#000000" stroke="#000000" points="313.0209,-117.038 316.9304,-127.2833 312.7295,-122.0295 312.4381,-127.021 312.4381,-127.021 312.4381,-127.021 312.7295,-122.0295 307.9457,-126.7588 313.0209,-117.038 313.0209,-117.038"/>
<text text-anchor="middle" x="339.4" y="-522" font-family="Helvetica,sans-Serif" font-size="10.00" fill="#000000">[PR not been</text>
<text text-anchor="middle" x="339.4" y="-510" font-family="Helvetica,sans-Serif" font-size="10.00" fill="#000000">reviewed]</text>
</g>
<!-- A14 -->
<g id="node15" class="node">
<title>A14</title>
<path fill="none" stroke="#000000" d="M452.635,-838C452.635,-838 349.807,-838 349.807,-838 343.807,-838 337.807,-832 337.807,-826 337.807,-826 337.807,-814 337.807,-814 337.807,-808 343.807,-802 349.807,-802 349.807,-802 452.635,-802 452.635,-802 458.635,-802 464.635,-808 464.635,-814 464.635,-814 464.635,-826 464.635,-826 464.635,-832 458.635,-838 452.635,-838"/>
<text text-anchor="middle" x="401.221" y="-817" font-family="Helvetica,sans-Serif" font-size="10.00" fill="#000000">Check approval status</text>
</g>
<!-- A12&#45;&gt;A14 -->
<g id="edge15" class="edge">
<title>A12&#45;&gt;A14</title>
<path fill="none" stroke="#000000" d="M319.6169,-895.3269C332.3319,-883.59 355.5454,-862.1621 373.9719,-845.153"/>
<polygon fill="#000000" stroke="#000000" points="381.5314,-838.175 377.2356,-848.2645 377.8574,-841.5664 374.1833,-844.9578 374.1833,-844.9578 374.1833,-844.9578 377.8574,-841.5664 371.1311,-841.6512 381.5314,-838.175 381.5314,-838.175"/>
<text text-anchor="middle" x="394.6655" y="-859" font-family="Helvetica,sans-Serif" font-size="10.00" fill="#000000">[Exists reviews]</text>
</g>
<!-- A15 -->
<g id="node16" class="node">
<title>A15</title>
<polygon fill="none" stroke="#000000" points="401.221,-765 383.221,-747 401.221,-729 419.221,-747 401.221,-765"/>
</g>
<!-- A14&#45;&gt;A15 -->
<g id="edge16" class="edge">
<title>A14&#45;&gt;A15</title>
<path fill="none" stroke="#000000" d="M401.221,-801.9551C401.221,-793.8828 401.221,-784.1764 401.221,-775.1817"/>
<polygon fill="#000000" stroke="#000000" points="401.221,-765.0904 405.7211,-775.0903 401.221,-770.0904 401.2211,-775.0904 401.2211,-775.0904 401.2211,-775.0904 401.221,-770.0904 396.7211,-775.0904 401.221,-765.0904 401.221,-765.0904"/>
</g>
<!-- A15&#45;&gt;A9 -->
<g id="edge17" class="edge">
<title>A15&#45;&gt;A9</title>
<path fill="none" stroke="#000000" d="M396.4917,-733.5141C391.1586,-717.0773 383.221,-688.3545 383.221,-663 383.221,-663 383.221,-663 383.221,-519 383.221,-460.3266 381.221,-445.6734 381.221,-387 381.221,-387 381.221,-387 381.221,-195 381.221,-167.4351 362.416,-142.1326 344.7311,-124.432"/>
<polygon fill="#000000" stroke="#000000" points="337.2786,-117.3271 347.6216,-120.9703 340.8975,-120.7772 344.5165,-124.2274 344.5165,-124.2274 344.5165,-124.2274 340.8975,-120.7772 341.4113,-127.4844 337.2786,-117.3271 337.2786,-117.3271"/>
<text text-anchor="middle" x="422.068" y="-426" font-family="Helvetica,sans-Serif" font-size="10.00" fill="#000000">[Not approved yet]</text>
</g>
<!-- A16 -->
<g id="node17" class="node">
<title>A16</title>
<path fill="none" stroke="#000000" d="M517.6749,-681C517.6749,-681 428.7671,-681 428.7671,-681 422.7671,-681 416.7671,-675 416.7671,-669 416.7671,-669 416.7671,-657 416.7671,-657 416.7671,-651 422.7671,-645 428.7671,-645 428.7671,-645 517.6749,-645 517.6749,-645 523.6749,-645 529.6749,-651 529.6749,-657 529.6749,-657 529.6749,-669 529.6749,-669 529.6749,-675 523.6749,-681 517.6749,-681"/>
<text text-anchor="middle" x="473.221" y="-660" font-family="Helvetica,sans-Serif" font-size="10.00" fill="#000000">Create local merge</text>
</g>
<!-- A15&#45;&gt;A16 -->
<g id="edge18" class="edge">
<title>A15&#45;&gt;A16</title>
<path fill="none" stroke="#000000" d="M409.7631,-737.0342C419.8788,-725.2325 437.1158,-705.1227 451.0741,-688.838"/>
<polygon fill="#000000" stroke="#000000" points="457.6175,-681.2041 454.5262,-691.7253 454.3635,-685.0004 451.1095,-688.7967 451.1095,-688.7967 451.1095,-688.7967 454.3635,-685.0004 447.6929,-685.8681 457.6175,-681.2041 457.6175,-681.2041"/>
<text text-anchor="middle" x="465.3965" y="-702" font-family="Helvetica,sans-Serif" font-size="10.00" fill="#000000">[Approved]</text>
</g>
<!-- A17 -->
<g id="node18" class="node">
<title>A17</title>
<path fill="none" stroke="#000000" d="M529.8531,-585C529.8531,-585 424.5889,-585 424.5889,-585 418.5889,-585 412.5889,-579 412.5889,-573 412.5889,-573 412.5889,-561 412.5889,-561 412.5889,-555 418.5889,-549 424.5889,-549 424.5889,-549 529.8531,-549 529.8531,-549 535.8531,-549 541.8531,-555 541.8531,-561 541.8531,-561 541.8531,-573 541.8531,-573 541.8531,-579 535.8531,-585 529.8531,-585"/>
<text text-anchor="middle" x="477.221" y="-564" font-family="Helvetica,sans-Serif" font-size="10.00" fill="#000000">Deploy merged branch</text>
</g>
<!-- A16&#45;&gt;A17 -->
<g id="edge19" class="edge">
<title>A16&#45;&gt;A17</title>
<path fill="none" stroke="#000000" d="M473.9734,-644.9431C474.5507,-631.0862 475.3591,-611.6861 476.0249,-595.7075"/>
<polygon fill="#000000" stroke="#000000" points="476.4584,-585.3023 480.5381,-595.481 476.2502,-590.298 476.042,-595.2936 476.042,-595.2936 476.042,-595.2936 476.2502,-590.298 471.5459,-595.1062 476.4584,-585.3023 476.4584,-585.3023"/>
</g>
<!-- A18 -->
<g id="node19" class="node">
<title>A18</title>
<path fill="none" stroke="#000000" d="M525.9124,-489C525.9124,-489 430.5296,-489 430.5296,-489 424.5296,-489 418.5296,-483 418.5296,-477 418.5296,-477 418.5296,-465 418.5296,-465 418.5296,-459 424.5296,-453 430.5296,-453 430.5296,-453 525.9124,-453 525.9124,-453 531.9124,-453 537.9124,-459 537.9124,-465 537.9124,-465 537.9124,-477 537.9124,-477 537.9124,-483 531.9124,-489 525.9124,-489"/>
<text text-anchor="middle" x="478.221" y="-474" font-family="Helvetica,sans-Serif" font-size="10.00" fill="#000000">Run integration tests</text>
<text text-anchor="middle" x="478.221" y="-462" font-family="Helvetica,sans-Serif" font-size="10.00" fill="#000000">against deployment</text>
</g>
<!-- A17&#45;&gt;A18 -->
<g id="edge20" class="edge">
<title>A17&#45;&gt;A18</title>
<path fill="none" stroke="#000000" d="M477.4091,-548.9431C477.5534,-535.0862 477.7555,-515.6861 477.922,-499.7075"/>
<polygon fill="#000000" stroke="#000000" points="478.0304,-489.3023 482.4259,-499.3487 477.9782,-494.302 477.9261,-499.3018 477.9261,-499.3018 477.9261,-499.3018 477.9782,-494.302 473.4263,-499.2548 478.0304,-489.3023 478.0304,-489.3023"/>
</g>
<!-- A19 -->
<g id="node20" class="node">
<title>A19</title>
<polygon fill="none" stroke="#000000" points="478.221,-405 460.221,-387 478.221,-369 496.221,-387 478.221,-405"/>
</g>
<!-- A18&#45;&gt;A19 -->
<g id="edge21" class="edge">
<title>A18&#45;&gt;A19</title>
<path fill="none" stroke="#000000" d="M478.221,-452.7733C478.221,-441.8758 478.221,-427.7946 478.221,-415.4587"/>
<polygon fill="#000000" stroke="#000000" points="478.221,-405.1912 482.7211,-415.1911 478.221,-410.1912 478.2211,-415.1912 478.2211,-415.1912 478.2211,-415.1912 478.221,-410.1912 473.7211,-415.1912 478.221,-405.1912 478.221,-405.1912"/>
</g>
<!-- A20 -->
<g id="node21" class="node">
<title>A20</title>
<path fill="none" stroke="#000000" d="M518.3996,-117C518.3996,-117 458.0424,-117 458.0424,-117 452.0424,-117 446.0424,-111 446.0424,-105 446.0424,-105 446.0424,-93 446.0424,-93 446.0424,-87 452.0424,-81 458.0424,-81 458.0424,-81 518.3996,-81 518.3996,-81 524.3996,-81 530.3996,-87 530.3996,-93 530.3996,-93 530.3996,-105 530.3996,-105 530.3996,-111 524.3996,-117 518.3996,-117"/>
<text text-anchor="middle" x="488.221" y="-96" font-family="Helvetica,sans-Serif" font-size="10.00" fill="#000000">Failed action</text>
</g>
<!-- A19&#45;&gt;A20 -->
<g id="edge22" class="edge">
<title>A19&#45;&gt;A20</title>
<path fill="none" stroke="#000000" d="M491.4568,-381.8965C503.7624,-376.3537 521.343,-366.204 529.221,-351 548.7702,-313.2715 647.9378,-509.7909 513.221,-135 512.0885,-131.8493 510.6068,-128.7182 508.9293,-125.693"/>
<polygon fill="#000000" stroke="#000000" points="503.4633,-117.0215 512.6026,-123.0814 506.1295,-121.2513 508.7958,-125.4811 508.7958,-125.4811 508.7958,-125.4811 506.1295,-121.2513 504.989,-127.8807 503.4633,-117.0215 503.4633,-117.0215"/>
<text text-anchor="middle" x="591.178" y="-246" font-family="Helvetica,sans-Serif" font-size="10.00" fill="#000000">[Integration tests</text>
<text text-anchor="middle" x="591.178" y="-234" font-family="Helvetica,sans-Serif" font-size="10.00" fill="#000000">filed]</text>
</g>
<!-- A21 -->
<g id="node22" class="node">
<title>A21</title>
<path fill="none" stroke="#000000" d="M502.9543,-309C502.9543,-309 421.4877,-309 421.4877,-309 415.4877,-309 409.4877,-303 409.4877,-297 409.4877,-297 409.4877,-285 409.4877,-285 409.4877,-279 415.4877,-273 421.4877,-273 421.4877,-273 502.9543,-273 502.9543,-273 508.9543,-273 514.9543,-279 514.9543,-285 514.9543,-285 514.9543,-297 514.9543,-297 514.9543,-303 508.9543,-309 502.9543,-309"/>
<text text-anchor="middle" x="462.221" y="-288" font-family="Helvetica,sans-Serif" font-size="10.00" fill="#000000">Initiate PR merge</text>
</g>
<!-- A19&#45;&gt;A21 -->
<g id="edge23" class="edge">
<title>A19&#45;&gt;A21</title>
<path fill="none" stroke="#000000" d="M470.9831,-375.8423C466.9707,-368.98 462.3836,-359.8346 460.307,-351 457.8999,-340.7594 457.6885,-329.2666 458.3156,-319.101"/>
<polygon fill="#000000" stroke="#000000" points="459.2157,-309.0959 462.8015,-319.459 458.7676,-314.0758 458.3196,-319.0557 458.3196,-319.0557 458.3196,-319.0557 458.7676,-314.0758 453.8377,-318.6524 459.2157,-309.0959 459.2157,-309.0959"/>
<text text-anchor="middle" x="494.678" y="-342" font-family="Helvetica,sans-Serif" font-size="10.00" fill="#000000">[Integration test</text>
<text text-anchor="middle" x="494.678" y="-330" font-family="Helvetica,sans-Serif" font-size="10.00" fill="#000000">succeeded]</text>
</g>
<!-- A20&#45;&gt;A26 -->
<g id="edge32" class="edge">
<title>A20&#45;&gt;A26</title>
<path fill="none" stroke="#000000" d="M469.2621,-80.7521C456.4055,-68.3776 439.4947,-52.1009 426.7334,-39.8182"/>
<polygon fill="#000000" stroke="#000000" points="419.3973,-32.7572 429.7228,-36.4497 422.9997,-36.2245 426.6022,-39.6919 426.6022,-39.6919 426.6022,-39.6919 422.9997,-36.2245 423.4815,-42.9341 419.3973,-32.7572 419.3973,-32.7572"/>
</g>
<!-- A27 -->
<g id="node28" class="node">
<title>A27</title>
<polygon fill="none" stroke="#000000" points="520.0103,-44 450.4317,-44 450.4317,0 526.0103,0 526.0103,-38 520.0103,-44"/>
<polyline fill="none" stroke="#000000" points="520.0103,-44 520.0103,-38 "/>
<polyline fill="none" stroke="#000000" points="526.0103,-38 520.0103,-38 "/>
<text text-anchor="middle" x="488.221" y="-31" font-family="Helvetica,sans-Serif" font-size="10.00" fill="#000000">Failure</text>
<text text-anchor="middle" x="488.221" y="-19" font-family="Helvetica,sans-Serif" font-size="10.00" fill="#000000">GitHub</text>
<text text-anchor="middle" x="488.221" y="-7" font-family="Helvetica,sans-Serif" font-size="10.00" fill="#000000">notification</text>
</g>
<!-- A20&#45;&gt;A27 -->
<g id="edge31" class="edge">
<title>A20&#45;&gt;A27</title>
<path fill="none" stroke="#000000" stroke-dasharray="5,2" d="M488.221,-80.7521C488.221,-69.8118 488.221,-55.8215 488.221,-44.2377"/>
</g>
<!-- A22 -->
<g id="node23" class="node">
<title>A22</title>
<polygon fill="none" stroke="#000000" points="462.221,-213 444.221,-195 462.221,-177 480.221,-195 462.221,-213"/>
</g>
<!-- A21&#45;&gt;A22 -->
<g id="edge24" class="edge">
<title>A21&#45;&gt;A22</title>
<path fill="none" stroke="#000000" d="M462.221,-272.9431C462.221,-259.0862 462.221,-239.6861 462.221,-223.7075"/>
<polygon fill="#000000" stroke="#000000" points="462.221,-213.3023 466.7211,-223.3023 462.221,-218.3023 462.2211,-223.3023 462.2211,-223.3023 462.2211,-223.3023 462.221,-218.3023 457.7211,-223.3023 462.221,-213.3023 462.221,-213.3023"/>
</g>
<!-- A23 -->
<g id="node24" class="node">
<title>A23</title>
<polygon fill="none" stroke="#000000" points="679.5856,-213 578.8564,-213 578.8564,-177 685.5856,-177 685.5856,-207 679.5856,-213"/>
<polyline fill="none" stroke="#000000" points="679.5856,-213 679.5856,-207 "/>
<polyline fill="none" stroke="#000000" points="685.5856,-207 679.5856,-207 "/>
<text text-anchor="middle" x="632.221" y="-198" font-family="Helvetica,sans-Serif" font-size="10.00" fill="#000000">Configured with</text>
<text text-anchor="middle" x="632.221" y="-186" font-family="Helvetica,sans-Serif" font-size="10.00" fill="#000000">Github API token.</text>
</g>
<!-- A21&#45;&gt;A23 -->
<g id="edge25" class="edge">
<title>A21&#45;&gt;A23</title>
<path fill="none" stroke="#000000" stroke-dasharray="5,2" d="M515.1152,-284.8254C554.4671,-279.1567 603.7577,-269.4282 618.221,-255 629.1258,-244.1217 632.1923,-226.4972 632.7884,-213.1578"/>
</g>
<!-- A22&#45;&gt;A9 -->
<g id="edge27" class="edge">
<title>A22&#45;&gt;A9</title>
<path fill="none" stroke="#000000" d="M451.6611,-187.3524C442.1108,-180.2989 427.7942,-169.3797 416.088,-159 404.8323,-149.0197 404.5486,-143.6214 392.221,-135 385.2812,-130.1466 377.5826,-125.6751 369.8032,-121.6549"/>
<polygon fill="#000000" stroke="#000000" points="360.6745,-117.147 371.6333,-117.5399 365.1577,-119.3609 369.6408,-121.5748 369.6408,-121.5748 369.6408,-121.5748 365.1577,-119.3609 367.6483,-125.6096 360.6745,-117.147 360.6745,-117.147"/>
<text text-anchor="middle" x="440.7875" y="-150" font-family="Helvetica,sans-Serif" font-size="10.00" fill="#000000">[Merge</text>
<text text-anchor="middle" x="440.7875" y="-138" font-family="Helvetica,sans-Serif" font-size="10.00" fill="#000000">succeeded]</text>
</g>
<!-- A22&#45;&gt;A20 -->
<g id="edge26" class="edge">
<title>A22&#45;&gt;A20</title>
<path fill="none" stroke="#000000" d="M466.0574,-180.8349C469.8832,-166.7087 475.8635,-144.6277 480.6482,-126.961"/>
<polygon fill="#000000" stroke="#000000" points="483.3019,-117.1627 485.0312,-127.9913 481.9948,-121.9888 480.6877,-126.8149 480.6877,-126.8149 480.6877,-126.8149 481.9948,-121.9888 476.3442,-125.6385 483.3019,-117.1627 483.3019,-117.1627"/>
<text text-anchor="middle" x="493.778" y="-150" font-family="Helvetica,sans-Serif" font-size="10.00" fill="#000000">[Merge</text>
<text text-anchor="middle" x="493.778" y="-138" font-family="Helvetica,sans-Serif" font-size="10.00" fill="#000000">failed]</text>
</g>
</g>
</svg>
