<?xml version="1.0" encoding="UTF-8" standalone="no"?>
<!DOCTYPE svg PUBLIC "-//W3C//DTD SVG 1.1//EN"
 "http://www.w3.org/Graphics/SVG/1.1/DTD/svg11.dtd">
<!-- Generated by graphviz version 2.40.1 (20161225.0304)
 -->
<!-- Title: G Pages: 1 -->
<svg width="545pt" height="1292pt"
 viewBox="0.00 0.00 544.69 1292.00" xmlns="http://www.w3.org/2000/svg" xmlns:xlink="http://www.w3.org/1999/xlink">
<g id="graph0" class="graph" transform="scale(1 1) rotate(0) translate(4 1288)">
<title>G</title>
<polygon fill="#ffffff" stroke="transparent" points="-4,4 -4,-1288 540.687,-1288 540.687,4 -4,4"/>
<!-- A0 -->
<g id="node1" class="node">
<title>A0</title>
<polygon fill="#f5f5dc" stroke="#000000" points="328.3377,-1284 251.4513,-1284 251.4513,-1248 334.3377,-1248 334.3377,-1278 328.3377,-1284"/>
<polyline fill="none" stroke="#000000" points="328.3377,-1284 328.3377,-1278 "/>
<polyline fill="none" stroke="#000000" points="334.3377,-1278 328.3377,-1278 "/>
<text text-anchor="middle" x="292.8945" y="-1269" font-family="Helvetica,sans-Serif" font-size="10.00" fill="#000000">PR Reviews</text>
<text text-anchor="middle" x="292.8945" y="-1257" font-family="Helvetica,sans-Serif" font-size="10.00" fill="#000000">activity</text>
</g>
<!-- A1 -->
<g id="node2" class="node">
<title>A1</title>
<ellipse fill="none" stroke="#000000" cx="362.8945" cy="-1266" rx="11" ry="11"/>
</g>
<!-- A2 -->
<g id="node3" class="node">
<title>A2</title>
<path fill="none" stroke="#000000" d="M418.0256,-1211C418.0256,-1211 307.7634,-1211 307.7634,-1211 301.7634,-1211 295.7634,-1205 295.7634,-1199 295.7634,-1199 295.7634,-1187 295.7634,-1187 295.7634,-1181 301.7634,-1175 307.7634,-1175 307.7634,-1175 418.0256,-1175 418.0256,-1175 424.0256,-1175 430.0256,-1181 430.0256,-1187 430.0256,-1187 430.0256,-1199 430.0256,-1199 430.0256,-1205 424.0256,-1211 418.0256,-1211"/>
<text text-anchor="middle" x="362.8945" y="-1190" font-family="Helvetica,sans-Serif" font-size="10.00" fill="#000000">Review submitted event</text>
</g>
<!-- A1&#45;&gt;A2 -->
<g id="edge1" class="edge">
<title>A1&#45;&gt;A2</title>
<path fill="none" stroke="#000000" d="M362.8945,-1254.9129C362.8945,-1245.9959 362.8945,-1233.0618 362.8945,-1221.3187"/>
<polygon fill="#000000" stroke="#000000" points="362.8945,-1211.0186 367.3946,-1221.0186 362.8945,-1216.0186 362.8946,-1221.0186 362.8946,-1221.0186 362.8946,-1221.0186 362.8945,-1216.0186 358.3946,-1221.0186 362.8945,-1211.0186 362.8945,-1211.0186"/>
</g>
<!-- A3 -->
<g id="node4" class="node">
<title>A3</title>
<polygon fill="none" stroke="#000000" points="381.4075,-1138 314.3815,-1138 314.3815,-1094 387.4075,-1094 387.4075,-1132 381.4075,-1138"/>
<polyline fill="none" stroke="#000000" points="381.4075,-1138 381.4075,-1132 "/>
<polyline fill="none" stroke="#000000" points="387.4075,-1132 381.4075,-1132 "/>
<text text-anchor="middle" x="350.8945" y="-1125" font-family="Helvetica,sans-Serif" font-size="10.00" fill="#000000">Branches:</text>
<text text-anchor="middle" x="350.8945" y="-1113" font-family="Helvetica,sans-Serif" font-size="10.00" fill="#000000">&#45; develop</text>
<text text-anchor="middle" x="350.8945" y="-1101" font-family="Helvetica,sans-Serif" font-size="10.00" fill="#000000">&#45; master</text>
</g>
<!-- A2&#45;&gt;A3 -->
<g id="edge2" class="edge">
<title>A2&#45;&gt;A3</title>
<path fill="none" stroke="#000000" stroke-dasharray="5,2" d="M360.0507,-1174.7521C358.3457,-1163.8118 356.1654,-1149.8215 354.3601,-1138.2377"/>
</g>
<!-- A4 -->
<g id="node5" class="node">
<title>A4</title>
<path fill="none" stroke="#000000" d="M464.1289,-1134C464.1289,-1134 417.6601,-1134 417.6601,-1134 411.6601,-1134 405.6601,-1128 405.6601,-1122 405.6601,-1122 405.6601,-1110 405.6601,-1110 405.6601,-1104 411.6601,-1098 417.6601,-1098 417.6601,-1098 464.1289,-1098 464.1289,-1098 470.1289,-1098 476.1289,-1104 476.1289,-1110 476.1289,-1110 476.1289,-1122 476.1289,-1122 476.1289,-1128 470.1289,-1134 464.1289,-1134"/>
<text text-anchor="middle" x="440.8945" y="-1113" font-family="Helvetica,sans-Serif" font-size="10.00" fill="#000000">Checkout</text>
</g>
<!-- A2&#45;&gt;A4 -->
<g id="edge3" class="edge">
<title>A2&#45;&gt;A4</title>
<path fill="none" stroke="#000000" d="M381.3794,-1174.7521C391.4819,-1164.7791 404.1518,-1152.2716 415.2022,-1141.3629"/>
<polygon fill="#000000" stroke="#000000" points="422.5423,-1134.1169 418.5871,-1144.3447 418.984,-1137.6296 415.4257,-1141.1423 415.4257,-1141.1423 415.4257,-1141.1423 418.984,-1137.6296 412.2643,-1137.9398 422.5423,-1134.1169 422.5423,-1134.1169"/>
</g>
<!-- A5 -->
<g id="node6" class="node">
<title>A5</title>
<path fill="none" stroke="#000000" d="M474.1448,-1057C474.1448,-1057 407.6442,-1057 407.6442,-1057 401.6442,-1057 395.6442,-1051 395.6442,-1045 395.6442,-1045 395.6442,-1033 395.6442,-1033 395.6442,-1027 401.6442,-1021 407.6442,-1021 407.6442,-1021 474.1448,-1021 474.1448,-1021 480.1448,-1021 486.1448,-1027 486.1448,-1033 486.1448,-1033 486.1448,-1045 486.1448,-1045 486.1448,-1051 480.1448,-1057 474.1448,-1057"/>
<text text-anchor="middle" x="440.8945" y="-1042" font-family="Helvetica,sans-Serif" font-size="10.00" fill="#000000">Install</text>
<text text-anchor="middle" x="440.8945" y="-1030" font-family="Helvetica,sans-Serif" font-size="10.00" fill="#000000">dependencies</text>
</g>
<!-- A4&#45;&gt;A5 -->
<g id="edge4" class="edge">
<title>A4&#45;&gt;A5</title>
<path fill="none" stroke="#000000" d="M440.8945,-1097.7521C440.8945,-1088.6422 440.8945,-1077.4174 440.8945,-1067.2282"/>
<polygon fill="#000000" stroke="#000000" points="440.8945,-1057.1169 445.3946,-1067.1169 440.8945,-1062.1169 440.8946,-1067.1169 440.8946,-1067.1169 440.8946,-1067.1169 440.8945,-1062.1169 436.3946,-1067.117 440.8945,-1057.1169 440.8945,-1057.1169"/>
</g>
<!-- A6 -->
<g id="node7" class="node">
<title>A6</title>
<path fill="none" stroke="#000000" d="M476.6718,-984C476.6718,-984 405.1172,-984 405.1172,-984 399.1172,-984 393.1172,-978 393.1172,-972 393.1172,-972 393.1172,-960 393.1172,-960 393.1172,-954 399.1172,-948 405.1172,-948 405.1172,-948 476.6718,-948 476.6718,-948 482.6718,-948 488.6718,-954 488.6718,-960 488.6718,-960 488.6718,-972 488.6718,-972 488.6718,-978 482.6718,-984 476.6718,-984"/>
<text text-anchor="middle" x="440.8945" y="-963" font-family="Helvetica,sans-Serif" font-size="10.00" fill="#000000">Get reviews list</text>
</g>
<!-- A5&#45;&gt;A6 -->
<g id="edge5" class="edge">
<title>A5&#45;&gt;A6</title>
<path fill="none" stroke="#000000" d="M440.8945,-1020.9551C440.8945,-1012.8828 440.8945,-1003.1764 440.8945,-994.1817"/>
<polygon fill="#000000" stroke="#000000" points="440.8945,-984.0904 445.3946,-994.0903 440.8945,-989.0904 440.8946,-994.0904 440.8946,-994.0904 440.8946,-994.0904 440.8945,-989.0904 436.3946,-994.0904 440.8945,-984.0904 440.8945,-984.0904"/>
</g>
<!-- A7 -->
<g id="node8" class="node">
<title>A7</title>
<polygon fill="none" stroke="#000000" points="396.8945,-911 378.8945,-893 396.8945,-875 414.8945,-893 396.8945,-911"/>
</g>
<!-- A6&#45;&gt;A7 -->
<g id="edge6" class="edge">
<title>A6&#45;&gt;A7</title>
<path fill="none" stroke="#000000" d="M430.0181,-947.9551C423.6408,-937.3746 415.5713,-923.9866 408.9938,-913.0738"/>
<polygon fill="#000000" stroke="#000000" points="403.6776,-904.2537 412.6939,-910.4953 406.2587,-908.536 408.8398,-912.8183 408.8398,-912.8183 408.8398,-912.8183 406.2587,-908.536 404.9858,-915.1413 403.6776,-904.2537 403.6776,-904.2537"/>
</g>
<!-- A8 -->
<g id="node9" class="node">
<title>A8</title>
<polygon fill="none" stroke="#000000" points="530.4803,-911 433.3087,-911 433.3087,-875 536.4803,-875 536.4803,-905 530.4803,-911"/>
<polyline fill="none" stroke="#000000" points="530.4803,-911 530.4803,-905 "/>
<polyline fill="none" stroke="#000000" points="536.4803,-905 530.4803,-905 "/>
<text text-anchor="middle" x="484.8945" y="-896" font-family="Helvetica,sans-Serif" font-size="10.00" fill="#000000">Configured with</text>
<text text-anchor="middle" x="484.8945" y="-884" font-family="Helvetica,sans-Serif" font-size="10.00" fill="#000000">Github API token</text>
</g>
<!-- A6&#45;&gt;A8 -->
<g id="edge7" class="edge">
<title>A6&#45;&gt;A8</title>
<path fill="none" stroke="#000000" stroke-dasharray="5,2" d="M451.7709,-947.9551C458.5402,-936.7241 467.2163,-922.3298 473.9907,-911.0904"/>
</g>
<!-- A9 -->
<g id="node10" class="node">
<title>A9</title>
<path fill="none" stroke="#000000" d="M314.0731,-117C314.0731,-117 253.7159,-117 253.7159,-117 247.7159,-117 241.7159,-111 241.7159,-105 241.7159,-105 241.7159,-93 241.7159,-93 241.7159,-87 247.7159,-81 253.7159,-81 253.7159,-81 314.0731,-81 314.0731,-81 320.0731,-81 326.0731,-87 326.0731,-93 326.0731,-93 326.0731,-105 326.0731,-105 326.0731,-111 320.0731,-117 314.0731,-117"/>
<text text-anchor="middle" x="283.8945" y="-96" font-family="Helvetica,sans-Serif" font-size="10.00" fill="#000000">Failed action</text>
</g>
<!-- A7&#45;&gt;A9 -->
<g id="edge8" class="edge">
<title>A7&#45;&gt;A9</title>
<path fill="none" stroke="#000000" d="M407.1787,-884.8627C415.0046,-878.1593 425.4876,-867.9964 431.8945,-857 443.0816,-837.7991 445.8945,-831.2222 445.8945,-809 445.8945,-809 445.8945,-809 445.8945,-195 445.8945,-143.1136 383.6288,-118.6645 336.3025,-107.5752"/>
<polygon fill="#000000" stroke="#000000" points="326.4581,-105.4066 337.1921,-103.1633 331.341,-106.4823 336.2239,-107.558 336.2239,-107.558 336.2239,-107.558 331.341,-106.4823 335.2558,-111.9526 326.4581,-105.4066 326.4581,-105.4066"/>
<text text-anchor="middle" x="476.4535" y="-534" font-family="Helvetica,sans-Serif" font-size="10.00" fill="#000000">[List is empty]</text>
</g>
<!-- A10 -->
<g id="node11" class="node">
<title>A10</title>
<path fill="none" stroke="#000000" d="M391.6927,-827C391.6927,-827 320.0963,-827 320.0963,-827 314.0963,-827 308.0963,-821 308.0963,-815 308.0963,-815 308.0963,-803 308.0963,-803 308.0963,-797 314.0963,-791 320.0963,-791 320.0963,-791 391.6927,-791 391.6927,-791 397.6927,-791 403.6927,-797 403.6927,-803 403.6927,-803 403.6927,-815 403.6927,-815 403.6927,-821 397.6927,-827 391.6927,-827"/>
<text text-anchor="middle" x="355.8945" y="-812" font-family="Helvetica,sans-Serif" font-size="10.00" fill="#000000">Checks and</text>
<text text-anchor="middle" x="355.8945" y="-800" font-family="Helvetica,sans-Serif" font-size="10.00" fill="#000000">approval status</text>
</g>
<!-- A7&#45;&gt;A10 -->
<g id="edge9" class="edge">
<title>A7&#45;&gt;A10</title>
<path fill="none" stroke="#000000" d="M388.2034,-883.5701C382.2428,-876.6622 374.5542,-866.8159 369.6485,-857 366.5967,-850.8935 364.1209,-844.0018 362.1556,-837.3858"/>
<polygon fill="#000000" stroke="#000000" points="359.478,-827.3686 366.4078,-835.8674 360.7692,-832.1991 362.0604,-837.0295 362.0604,-837.0295 362.0604,-837.0295 360.7692,-832.1991 357.7131,-838.1916 359.478,-827.3686 359.478,-827.3686"/>
<text text-anchor="middle" x="401.0175" y="-848" font-family="Helvetica,sans-Serif" font-size="10.00" fill="#000000">[List obtained]</text>
</g>
<!-- A22 -->
<g id="node23" class="node">
<title>A22</title>
<ellipse fill="none" stroke="#000000" cx="209.8945" cy="-22" rx="11" ry="11"/>
<ellipse fill="none" stroke="#000000" cx="209.8945" cy="-22" rx="15" ry="15"/>
</g>
<!-- A9&#45;&gt;A22 -->
<g id="edge26" class="edge">
<title>A9&#45;&gt;A22</title>
<path fill="none" stroke="#000000" d="M266.3575,-80.7521C254.7176,-68.6403 239.4851,-52.7902 227.7753,-40.6057"/>
<polygon fill="#000000" stroke="#000000" points="220.6622,-33.2042 230.836,-37.2962 224.1268,-36.8093 227.5914,-40.4143 227.5914,-40.4143 227.5914,-40.4143 224.1268,-36.8093 224.3468,-43.5325 220.6622,-33.2042 220.6622,-33.2042"/>
</g>
<!-- A23 -->
<g id="node24" class="node">
<title>A23</title>
<polygon fill="none" stroke="#000000" points="315.6838,-44 246.1052,-44 246.1052,0 321.6838,0 321.6838,-38 315.6838,-44"/>
<polyline fill="none" stroke="#000000" points="315.6838,-44 315.6838,-38 "/>
<polyline fill="none" stroke="#000000" points="321.6838,-38 315.6838,-38 "/>
<text text-anchor="middle" x="283.8945" y="-31" font-family="Helvetica,sans-Serif" font-size="10.00" fill="#000000">Failure</text>
<text text-anchor="middle" x="283.8945" y="-19" font-family="Helvetica,sans-Serif" font-size="10.00" fill="#000000">GitHub</text>
<text text-anchor="middle" x="283.8945" y="-7" font-family="Helvetica,sans-Serif" font-size="10.00" fill="#000000">notification</text>
</g>
<!-- A9&#45;&gt;A23 -->
<g id="edge25" class="edge">
<title>A9&#45;&gt;A23</title>
<path fill="none" stroke="#000000" stroke-dasharray="5,2" d="M283.8945,-80.7521C283.8945,-69.8118 283.8945,-55.8215 283.8945,-44.2377"/>
</g>
<!-- A11 -->
<g id="node12" class="node">
<title>A11</title>
<polygon fill="none" stroke="#000000" points="348.8945,-754 330.8945,-736 348.8945,-718 366.8945,-736 348.8945,-754"/>
</g>
<!-- A10&#45;&gt;A11 -->
<g id="edge10" class="edge">
<title>A10&#45;&gt;A11</title>
<path fill="none" stroke="#000000" d="M354.1642,-790.9551C353.3523,-782.4883 352.368,-772.2237 351.4709,-762.8683"/>
<polygon fill="#000000" stroke="#000000" points="350.509,-752.8365 355.943,-762.3612 350.9863,-757.8136 351.4636,-762.7908 351.4636,-762.7908 351.4636,-762.7908 350.9863,-757.8136 346.9841,-763.2204 350.509,-752.8365 350.509,-752.8365"/>
</g>
<!-- A11&#45;&gt;A9 -->
<g id="edge11" class="edge">
<title>A11&#45;&gt;A9</title>
<path fill="none" stroke="#000000" d="M348.8945,-717.9756C348.8945,-700.9658 348.8945,-674.75 348.8945,-652 348.8945,-652 348.8945,-652 348.8945,-195 348.8945,-167.5257 330.4146,-142.0569 313.162,-124.2659"/>
<polygon fill="#000000" stroke="#000000" points="305.9005,-117.1278 316.1866,-120.929 309.4662,-120.633 313.0319,-124.1381 313.0319,-124.1381 313.0319,-124.1381 309.4662,-120.633 309.8773,-127.3472 305.9005,-117.1278 305.9005,-117.1278"/>
<text text-anchor="middle" x="389.7415" y="-450" font-family="Helvetica,sans-Serif" font-size="10.00" fill="#000000">[Not approved yet]</text>
</g>
<!-- A12 -->
<g id="node13" class="node">
<title>A12</title>
<path fill="none" stroke="#000000" d="M307.3484,-670C307.3484,-670 218.4406,-670 218.4406,-670 212.4406,-670 206.4406,-664 206.4406,-658 206.4406,-658 206.4406,-646 206.4406,-646 206.4406,-640 212.4406,-634 218.4406,-634 218.4406,-634 307.3484,-634 307.3484,-634 313.3484,-634 319.3484,-640 319.3484,-646 319.3484,-646 319.3484,-658 319.3484,-658 319.3484,-664 313.3484,-670 307.3484,-670"/>
<text text-anchor="middle" x="262.8945" y="-649" font-family="Helvetica,sans-Serif" font-size="10.00" fill="#000000">Create local merge</text>
</g>
<!-- A11&#45;&gt;A12 -->
<g id="edge12" class="edge">
<title>A11&#45;&gt;A12</title>
<path fill="none" stroke="#000000" d="M335.7003,-731.0874C321.9385,-725.4011 300.4683,-714.8732 286.5435,-700 281.1308,-694.2187 276.7006,-686.9649 273.1986,-679.8605"/>
<polygon fill="#000000" stroke="#000000" points="268.9936,-670.4174 277.1724,-677.722 271.0276,-674.985 273.0616,-679.5526 273.0616,-679.5526 273.0616,-679.5526 271.0276,-674.985 268.9507,-681.3832 268.9936,-670.4174 268.9936,-670.4174"/>
<text text-anchor="middle" x="311.07" y="-691" font-family="Helvetica,sans-Serif" font-size="10.00" fill="#000000">[Approved]</text>
</g>
<!-- A13 -->
<g id="node14" class="node">
<title>A13</title>
<path fill="none" stroke="#000000" d="M308.5266,-597C308.5266,-597 203.2624,-597 203.2624,-597 197.2624,-597 191.2624,-591 191.2624,-585 191.2624,-585 191.2624,-573 191.2624,-573 191.2624,-567 197.2624,-561 203.2624,-561 203.2624,-561 308.5266,-561 308.5266,-561 314.5266,-561 320.5266,-567 320.5266,-573 320.5266,-573 320.5266,-585 320.5266,-585 320.5266,-591 314.5266,-597 308.5266,-597"/>
<text text-anchor="middle" x="255.8945" y="-576" font-family="Helvetica,sans-Serif" font-size="10.00" fill="#000000">Deploy merged branch</text>
</g>
<!-- A12&#45;&gt;A13 -->
<g id="edge13" class="edge">
<title>A12&#45;&gt;A13</title>
<path fill="none" stroke="#000000" d="M261.1642,-633.9551C260.3901,-625.8828 259.4594,-616.1764 258.5969,-607.1817"/>
<polygon fill="#000000" stroke="#000000" points="257.6292,-597.0904 263.0633,-606.6151 258.1065,-602.0675 258.5838,-607.0447 258.5838,-607.0447 258.5838,-607.0447 258.1065,-602.0675 254.1044,-607.4743 257.6292,-597.0904 257.6292,-597.0904"/>
</g>
<!-- A14 -->
<g id="node15" class="node">
<title>A14</title>
<path fill="none" stroke="#000000" d="M303.5859,-513C303.5859,-513 208.2031,-513 208.2031,-513 202.2031,-513 196.2031,-507 196.2031,-501 196.2031,-501 196.2031,-489 196.2031,-489 196.2031,-483 202.2031,-477 208.2031,-477 208.2031,-477 303.5859,-477 303.5859,-477 309.5859,-477 315.5859,-483 315.5859,-489 315.5859,-489 315.5859,-501 315.5859,-501 315.5859,-507 309.5859,-513 303.5859,-513"/>
<text text-anchor="middle" x="255.8945" y="-498" font-family="Helvetica,sans-Serif" font-size="10.00" fill="#000000">Run integration tests</text>
<text text-anchor="middle" x="255.8945" y="-486" font-family="Helvetica,sans-Serif" font-size="10.00" fill="#000000">against deployment</text>
</g>
<!-- A13&#45;&gt;A14 -->
<g id="edge14" class="edge">
<title>A13&#45;&gt;A14</title>
<path fill="none" stroke="#000000" d="M255.8945,-560.7733C255.8945,-549.8758 255.8945,-535.7946 255.8945,-523.4587"/>
<polygon fill="#000000" stroke="#000000" points="255.8945,-513.1912 260.3946,-523.1911 255.8945,-518.1912 255.8946,-523.1912 255.8946,-523.1912 255.8946,-523.1912 255.8945,-518.1912 251.3946,-523.1912 255.8945,-513.1912 255.8945,-513.1912"/>
</g>
<!-- A15 -->
<g id="node16" class="node">
<title>A15</title>
<polygon fill="none" stroke="#000000" points="255.8945,-429 237.8945,-411 255.8945,-393 273.8945,-411 255.8945,-429"/>
</g>
<!-- A14&#45;&gt;A15 -->
<g id="edge15" class="edge">
<title>A14&#45;&gt;A15</title>
<path fill="none" stroke="#000000" d="M255.8945,-476.7733C255.8945,-465.8758 255.8945,-451.7946 255.8945,-439.4587"/>
<polygon fill="#000000" stroke="#000000" points="255.8945,-429.1912 260.3946,-439.1911 255.8945,-434.1912 255.8946,-439.1912 255.8946,-439.1912 255.8946,-439.1912 255.8945,-434.1912 251.3946,-439.1912 255.8945,-429.1912 255.8945,-429.1912"/>
</g>
<!-- A15&#45;&gt;A9 -->
<g id="edge16" class="edge">
<title>A15&#45;&gt;A9</title>
<path fill="none" stroke="#000000" d="M261.8348,-398.6422C264.8156,-391.8318 268.1547,-383.1314 269.8945,-375 279.8615,-328.4174 282.7896,-188.0336 283.6018,-127.399"/>
<polygon fill="#000000" stroke="#000000" points="283.7262,-117.3773 288.1016,-127.4324 283.6641,-122.3769 283.6019,-127.3765 283.6019,-127.3765 283.6019,-127.3765 283.6641,-122.3769 279.1023,-127.3206 283.7262,-117.3773 283.7262,-117.3773"/>
<text text-anchor="middle" x="306.9035" y="-258" font-family="Helvetica,sans-Serif" font-size="10.00" fill="#000000">[Integration</text>
<text text-anchor="middle" x="306.9035" y="-246" font-family="Helvetica,sans-Serif" font-size="10.00" fill="#000000">tests</text>
<text text-anchor="middle" x="306.9035" y="-234" font-family="Helvetica,sans-Serif" font-size="10.00" fill="#000000">filed]</text>
</g>
<!-- A16 -->
<g id="node17" class="node">
<title>A16</title>
<path fill="none" stroke="#000000" d="M243.6278,-321C243.6278,-321 162.1612,-321 162.1612,-321 156.1612,-321 150.1612,-315 150.1612,-309 150.1612,-309 150.1612,-297 150.1612,-297 150.1612,-291 156.1612,-285 162.1612,-285 162.1612,-285 243.6278,-285 243.6278,-285 249.6278,-285 255.6278,-291 255.6278,-297 255.6278,-297 255.6278,-309 255.6278,-309 255.6278,-315 249.6278,-321 243.6278,-321"/>
<text text-anchor="middle" x="202.8945" y="-300" font-family="Helvetica,sans-Serif" font-size="10.00" fill="#000000">Initiate PR merge</text>
</g>
<!-- A15&#45;&gt;A16 -->
<g id="edge17" class="edge">
<title>A15&#45;&gt;A16</title>
<path fill="none" stroke="#000000" d="M245.1011,-403.3807C236.6353,-396.8239 225.2361,-386.605 218.7615,-375 211.3071,-361.6389 207.3547,-345.0579 205.2592,-331.1768"/>
<polygon fill="#000000" stroke="#000000" points="203.9914,-321.1862 209.7145,-330.5401 204.6209,-326.1464 205.2503,-331.1066 205.2503,-331.1066 205.2503,-331.1066 204.6209,-326.1464 200.7861,-331.6732 203.9914,-321.1862 203.9914,-321.1862"/>
<text text-anchor="middle" x="244.461" y="-366" font-family="Helvetica,sans-Serif" font-size="10.00" fill="#000000">[Integration</text>
<text text-anchor="middle" x="244.461" y="-354" font-family="Helvetica,sans-Serif" font-size="10.00" fill="#000000">tests</text>
<text text-anchor="middle" x="244.461" y="-342" font-family="Helvetica,sans-Serif" font-size="10.00" fill="#000000">succeeded]</text>
</g>
<!-- A17 -->
<g id="node18" class="node">
<title>A17</title>
<polygon fill="none" stroke="#000000" points="113.8945,-213 95.8945,-195 113.8945,-177 131.8945,-195 113.8945,-213"/>
</g>
<!-- A16&#45;&gt;A17 -->
<g id="edge18" class="edge">
<title>A16&#45;&gt;A17</title>
<path fill="none" stroke="#000000" d="M187.7969,-284.6793C171.2941,-264.6534 145.0264,-232.778 128.6572,-212.9143"/>
<polygon fill="#000000" stroke="#000000" points="122.1042,-204.9623 131.9365,-209.8177 125.284,-208.8209 128.4638,-212.6795 128.4638,-212.6795 128.4638,-212.6795 125.284,-208.8209 124.991,-215.5414 122.1042,-204.9623 122.1042,-204.9623"/>
</g>
<!-- A18 -->
<g id="node19" class="node">
<title>A18</title>
<polygon fill="none" stroke="#000000" points="250.2591,-213 149.5299,-213 149.5299,-177 256.2591,-177 256.2591,-207 250.2591,-213"/>
<polyline fill="none" stroke="#000000" points="250.2591,-213 250.2591,-207 "/>
<polyline fill="none" stroke="#000000" points="256.2591,-207 250.2591,-207 "/>
<text text-anchor="middle" x="202.8945" y="-198" font-family="Helvetica,sans-Serif" font-size="10.00" fill="#000000">Configured with</text>
<text text-anchor="middle" x="202.8945" y="-186" font-family="Helvetica,sans-Serif" font-size="10.00" fill="#000000">Github API token.</text>
</g>
<!-- A16&#45;&gt;A18 -->
<g id="edge19" class="edge">
<title>A16&#45;&gt;A18</title>
<path fill="none" stroke="#000000" stroke-dasharray="5,2" d="M202.8945,-284.6793C202.8945,-264.699 202.8945,-232.9231 202.8945,-213.0502"/>
</g>
<!-- A17&#45;&gt;A9 -->
<g id="edge20" class="edge">
<title>A17&#45;&gt;A9</title>
<path fill="none" stroke="#000000" d="M124.4419,-187.4501C129.3403,-184.0799 135.3057,-180.1643 140.8945,-177 157.1566,-167.7925 162.3251,-167.6422 178.8945,-159 201.0106,-147.4648 225.2133,-133.7138 244.8028,-122.2881"/>
<polygon fill="#000000" stroke="#000000" points="253.4547,-117.2183 247.1019,-126.1566 249.1407,-119.7462 244.8268,-122.2741 244.8268,-122.2741 244.8268,-122.2741 249.1407,-119.7462 242.5517,-118.3915 253.4547,-117.2183 253.4547,-117.2183"/>
<text text-anchor="middle" x="238.4515" y="-150" font-family="Helvetica,sans-Serif" font-size="10.00" fill="#000000">[Merge</text>
<text text-anchor="middle" x="238.4515" y="-138" font-family="Helvetica,sans-Serif" font-size="10.00" fill="#000000">failed]</text>
</g>
<!-- A19 -->
<g id="node20" class="node">
<title>A19</title>
<path fill="none" stroke="#000000" d="M171.8985,-117C171.8985,-117 87.8905,-117 87.8905,-117 81.8905,-117 75.8905,-111 75.8905,-105 75.8905,-105 75.8905,-93 75.8905,-93 75.8905,-87 81.8905,-81 87.8905,-81 87.8905,-81 171.8985,-81 171.8985,-81 177.8985,-81 183.8985,-87 183.8985,-93 183.8985,-93 183.8985,-105 183.8985,-105 183.8985,-111 177.8985,-117 171.8985,-117"/>
<text text-anchor="middle" x="129.8945" y="-96" font-family="Helvetica,sans-Serif" font-size="10.00" fill="#000000">Normal action exit</text>
</g>
<!-- A17&#45;&gt;A19 -->
<g id="edge21" class="edge">
<title>A17&#45;&gt;A19</title>
<path fill="none" stroke="#000000" d="M116.5366,-179.1476C118.8887,-165.0349 122.3844,-144.0606 125.2098,-127.108"/>
<polygon fill="#000000" stroke="#000000" points="126.8662,-117.1697 129.6609,-127.7735 126.0442,-122.1017 125.2221,-127.0337 125.2221,-127.0337 125.2221,-127.0337 126.0442,-122.1017 120.7834,-126.2938 126.8662,-117.1697 126.8662,-117.1697"/>
<text text-anchor="middle" x="149.461" y="-150" font-family="Helvetica,sans-Serif" font-size="10.00" fill="#000000">[Merge</text>
<text text-anchor="middle" x="149.461" y="-138" font-family="Helvetica,sans-Serif" font-size="10.00" fill="#000000">succeeded]</text>
</g>
<!-- A20 -->
<g id="node21" class="node">
<title>A20</title>
<polygon fill="none" stroke="#000000" points="69.6838,-44 .1052,-44 .1052,0 75.6838,0 75.6838,-38 69.6838,-44"/>
<polyline fill="none" stroke="#000000" points="69.6838,-44 69.6838,-38 "/>
<polyline fill="none" stroke="#000000" points="75.6838,-38 69.6838,-38 "/>
<text text-anchor="middle" x="37.8945" y="-31" font-family="Helvetica,sans-Serif" font-size="10.00" fill="#000000">Success</text>
<text text-anchor="middle" x="37.8945" y="-19" font-family="Helvetica,sans-Serif" font-size="10.00" fill="#000000">GitHub</text>
<text text-anchor="middle" x="37.8945" y="-7" font-family="Helvetica,sans-Serif" font-size="10.00" fill="#000000">notification</text>
</g>
<!-- A19&#45;&gt;A20 -->
<g id="edge22" class="edge">
<title>A19&#45;&gt;A20</title>
<path fill="none" stroke="#000000" stroke-dasharray="5,2" d="M108.0918,-80.7521C95.0203,-69.8118 78.3047,-55.8215 64.4642,-44.2377"/>
</g>
<!-- A21 -->
<g id="node22" class="node">
<title>A21</title>
<polygon fill="none" stroke="#000000" points="163.6838,-44 94.1052,-44 94.1052,0 169.6838,0 169.6838,-38 163.6838,-44"/>
<polyline fill="none" stroke="#000000" points="163.6838,-44 163.6838,-38 "/>
<polyline fill="none" stroke="#000000" points="169.6838,-38 163.6838,-38 "/>
<text text-anchor="middle" x="131.8945" y="-31" font-family="Helvetica,sans-Serif" font-size="10.00" fill="#000000">Merge</text>
<text text-anchor="middle" x="131.8945" y="-19" font-family="Helvetica,sans-Serif" font-size="10.00" fill="#000000">GitHub</text>
<text text-anchor="middle" x="131.8945" y="-7" font-family="Helvetica,sans-Serif" font-size="10.00" fill="#000000">notification</text>
</g>
<!-- A19&#45;&gt;A21 -->
<g id="edge23" class="edge">
<title>A19&#45;&gt;A21</title>
<path fill="none" stroke="#000000" stroke-dasharray="5,2" d="M130.3685,-80.7521C130.6526,-69.8118 131.016,-55.8215 131.3169,-44.2377"/>
</g>
<!-- A19&#45;&gt;A22 -->
<g id="edge24" class="edge">
<title>A19&#45;&gt;A22</title>
<path fill="none" stroke="#000000" d="M148.8534,-80.7521C161.71,-68.3776 178.6208,-52.1009 191.3821,-39.8182"/>
<polygon fill="#000000" stroke="#000000" points="198.7182,-32.7572 194.634,-42.9341 195.1158,-36.2245 191.5133,-39.6919 191.5133,-39.6919 191.5133,-39.6919 195.1158,-36.2245 188.3927,-36.4497 198.7182,-32.7572 198.7182,-32.7572"/>
</g>
</g>
</svg>
